<mxfile host="Electron" agent="Mozilla/5.0 (Windows NT 10.0; Win64; x64) AppleWebKit/537.36 (KHTML, like Gecko) draw.io/27.0.9 Chrome/134.0.6998.205 Electron/35.4.0 Safari/537.36" version="27.0.9" pages="3">
  <diagram id="kCXOmunfT1MT4JA6pn5u" name="Page-1">
    <mxGraphModel dx="1292" dy="860" grid="1" gridSize="10" guides="1" tooltips="1" connect="1" arrows="1" fold="1" page="1" pageScale="1" pageWidth="850" pageHeight="1100" math="0" shadow="0">
      <root>
        <mxCell id="0" />
        <mxCell id="1" parent="0" />
        <mxCell id="vNkRoHx8s-_Z82SsAWss-39" value="" style="group" parent="1" vertex="1" connectable="0">
          <mxGeometry x="219.5" y="185" width="150" height="110" as="geometry" />
        </mxCell>
        <mxCell id="vNkRoHx8s-_Z82SsAWss-2" value="&lt;div style=&quot;&quot;&gt;&lt;span style=&quot;background-color: transparent; color: light-dark(rgb(0, 0, 0), rgb(255, 255, 255));&quot;&gt;Train, Val, Test Split&lt;/span&gt;&lt;/div&gt;" style="rounded=1;whiteSpace=wrap;html=1;dashed=1;dashPattern=8 8;verticalAlign=top;fontStyle=1;fontSize=13;align=center;" parent="vNkRoHx8s-_Z82SsAWss-39" vertex="1">
          <mxGeometry width="150" height="110" as="geometry" />
        </mxCell>
        <mxCell id="vNkRoHx8s-_Z82SsAWss-36" value="" style="group" parent="vNkRoHx8s-_Z82SsAWss-39" vertex="1" connectable="0">
          <mxGeometry x="22.5" y="28" width="105" height="70" as="geometry" />
        </mxCell>
        <mxCell id="vNkRoHx8s-_Z82SsAWss-6" value="&lt;div&gt;70% Train&lt;/div&gt;" style="rounded=1;whiteSpace=wrap;html=1;align=center;" parent="vNkRoHx8s-_Z82SsAWss-36" vertex="1">
          <mxGeometry width="105" height="20" as="geometry" />
        </mxCell>
        <mxCell id="vNkRoHx8s-_Z82SsAWss-34" value="15% Validation" style="rounded=1;whiteSpace=wrap;html=1;align=center;" parent="vNkRoHx8s-_Z82SsAWss-36" vertex="1">
          <mxGeometry y="25" width="105" height="20" as="geometry" />
        </mxCell>
        <mxCell id="vNkRoHx8s-_Z82SsAWss-35" value="15% Test" style="rounded=1;whiteSpace=wrap;html=1;align=center;" parent="vNkRoHx8s-_Z82SsAWss-36" vertex="1">
          <mxGeometry y="50" width="105" height="20" as="geometry" />
        </mxCell>
        <mxCell id="vNkRoHx8s-_Z82SsAWss-46" style="edgeStyle=orthogonalEdgeStyle;rounded=0;orthogonalLoop=1;jettySize=auto;html=1;exitX=1;exitY=0.5;exitDx=0;exitDy=0;entryX=0;entryY=0.5;entryDx=0;entryDy=0;" parent="1" source="vNkRoHx8s-_Z82SsAWss-2" target="vNkRoHx8s-_Z82SsAWss-41" edge="1">
          <mxGeometry relative="1" as="geometry" />
        </mxCell>
        <mxCell id="vNkRoHx8s-_Z82SsAWss-47" value="" style="group" parent="1" vertex="1" connectable="0">
          <mxGeometry x="393" y="185" width="170" height="110" as="geometry" />
        </mxCell>
        <mxCell id="vNkRoHx8s-_Z82SsAWss-41" value="&lt;div style=&quot;&quot;&gt;&lt;span style=&quot;background-color: transparent; color: light-dark(rgb(0, 0, 0), rgb(255, 255, 255));&quot;&gt;Augmentation&lt;/span&gt;&lt;/div&gt;" style="rounded=1;whiteSpace=wrap;html=1;dashed=1;dashPattern=8 8;verticalAlign=top;fontStyle=1;fontSize=13;align=center;" parent="vNkRoHx8s-_Z82SsAWss-47" vertex="1">
          <mxGeometry width="170" height="110" as="geometry" />
        </mxCell>
        <mxCell id="vNkRoHx8s-_Z82SsAWss-42" value="" style="group" parent="vNkRoHx8s-_Z82SsAWss-47" vertex="1" connectable="0">
          <mxGeometry x="22" y="28" width="126" height="70" as="geometry" />
        </mxCell>
        <mxCell id="vNkRoHx8s-_Z82SsAWss-43" value="&lt;div&gt;random noise&lt;/div&gt;" style="rounded=1;whiteSpace=wrap;html=1;align=center;" parent="vNkRoHx8s-_Z82SsAWss-42" vertex="1">
          <mxGeometry width="126" height="20" as="geometry" />
        </mxCell>
        <mxCell id="vNkRoHx8s-_Z82SsAWss-44" value="random shift" style="rounded=1;whiteSpace=wrap;html=1;align=center;" parent="vNkRoHx8s-_Z82SsAWss-42" vertex="1">
          <mxGeometry y="25" width="126" height="20" as="geometry" />
        </mxCell>
        <mxCell id="vNkRoHx8s-_Z82SsAWss-45" value="random horizontal flip" style="rounded=1;whiteSpace=wrap;html=1;align=center;" parent="vNkRoHx8s-_Z82SsAWss-42" vertex="1">
          <mxGeometry y="50" width="126" height="20" as="geometry" />
        </mxCell>
        <mxCell id="vNkRoHx8s-_Z82SsAWss-79" value="" style="group" parent="1" vertex="1" connectable="0">
          <mxGeometry x="587" y="15" width="210" height="450" as="geometry" />
        </mxCell>
        <mxCell id="vNkRoHx8s-_Z82SsAWss-4" value="LSTM Model&lt;br&gt;&lt;span style=&quot;font-weight: normal;&quot;&gt;&lt;font style=&quot;font-size: 12px;&quot;&gt;Total params: 441,798 (1.69 MB)&lt;/font&gt;&lt;/span&gt;" style="rounded=1;whiteSpace=wrap;html=1;dashed=1;dashPattern=8 8;verticalAlign=top;fontStyle=1;fontSize=13;" parent="vNkRoHx8s-_Z82SsAWss-79" vertex="1">
          <mxGeometry width="210" height="450" as="geometry" />
        </mxCell>
        <mxCell id="vNkRoHx8s-_Z82SsAWss-78" value="" style="group" parent="vNkRoHx8s-_Z82SsAWss-79" vertex="1" connectable="0">
          <mxGeometry x="25" y="52" width="160" height="385" as="geometry" />
        </mxCell>
        <mxCell id="vNkRoHx8s-_Z82SsAWss-62" value="Sequence&amp;nbsp;(30, 132)" style="rounded=1;whiteSpace=wrap;html=1;strokeColor=#808080;fontColor=#808080;" parent="vNkRoHx8s-_Z82SsAWss-78" vertex="1">
          <mxGeometry width="160" height="25" as="geometry" />
        </mxCell>
        <mxCell id="vNkRoHx8s-_Z82SsAWss-63" value="Classification [0, ..., 5]" style="rounded=1;whiteSpace=wrap;html=1;strokeColor=#808080;fontColor=#808080;" parent="vNkRoHx8s-_Z82SsAWss-78" vertex="1">
          <mxGeometry y="360" width="160" height="25" as="geometry" />
        </mxCell>
        <mxCell id="vNkRoHx8s-_Z82SsAWss-76" value="" style="group" parent="vNkRoHx8s-_Z82SsAWss-78" vertex="1" connectable="0">
          <mxGeometry y="49" width="160" height="288" as="geometry" />
        </mxCell>
        <mxCell id="vNkRoHx8s-_Z82SsAWss-54" value="Bidirectional LSTM" style="rounded=1;whiteSpace=wrap;html=1;" parent="vNkRoHx8s-_Z82SsAWss-76" vertex="1">
          <mxGeometry width="160" height="25" as="geometry" />
        </mxCell>
        <mxCell id="vNkRoHx8s-_Z82SsAWss-55" value="BatchNormalization" style="rounded=1;whiteSpace=wrap;html=1;" parent="vNkRoHx8s-_Z82SsAWss-76" vertex="1">
          <mxGeometry y="38" width="160" height="25" as="geometry" />
        </mxCell>
        <mxCell id="vNkRoHx8s-_Z82SsAWss-77" style="edgeStyle=orthogonalEdgeStyle;rounded=0;orthogonalLoop=1;jettySize=auto;html=1;exitX=0.5;exitY=1;exitDx=0;exitDy=0;entryX=0.5;entryY=0;entryDx=0;entryDy=0;" parent="vNkRoHx8s-_Z82SsAWss-76" source="vNkRoHx8s-_Z82SsAWss-56" target="vNkRoHx8s-_Z82SsAWss-57" edge="1">
          <mxGeometry relative="1" as="geometry" />
        </mxCell>
        <mxCell id="vNkRoHx8s-_Z82SsAWss-56" value="Dropout (0.5)" style="rounded=1;whiteSpace=wrap;html=1;" parent="vNkRoHx8s-_Z82SsAWss-76" vertex="1">
          <mxGeometry y="75" width="160" height="25" as="geometry" />
        </mxCell>
        <mxCell id="vNkRoHx8s-_Z82SsAWss-57" value="Bidirectional LSTM" style="rounded=1;whiteSpace=wrap;html=1;" parent="vNkRoHx8s-_Z82SsAWss-76" vertex="1">
          <mxGeometry y="113" width="160" height="25" as="geometry" />
        </mxCell>
        <mxCell id="vNkRoHx8s-_Z82SsAWss-58" value="BatchNormalization" style="rounded=1;whiteSpace=wrap;html=1;" parent="vNkRoHx8s-_Z82SsAWss-76" vertex="1">
          <mxGeometry y="150" width="160" height="25" as="geometry" />
        </mxCell>
        <mxCell id="vNkRoHx8s-_Z82SsAWss-59" value="Dropout (0.5)" style="rounded=1;whiteSpace=wrap;html=1;" parent="vNkRoHx8s-_Z82SsAWss-76" vertex="1">
          <mxGeometry y="188" width="160" height="25" as="geometry" />
        </mxCell>
        <mxCell id="vNkRoHx8s-_Z82SsAWss-60" value="Dense" style="rounded=1;whiteSpace=wrap;html=1;" parent="vNkRoHx8s-_Z82SsAWss-76" vertex="1">
          <mxGeometry y="225" width="160" height="25" as="geometry" />
        </mxCell>
        <mxCell id="vNkRoHx8s-_Z82SsAWss-61" value="Dense" style="rounded=1;whiteSpace=wrap;html=1;" parent="vNkRoHx8s-_Z82SsAWss-76" vertex="1">
          <mxGeometry y="263" width="160" height="25" as="geometry" />
        </mxCell>
        <mxCell id="vNkRoHx8s-_Z82SsAWss-64" style="edgeStyle=orthogonalEdgeStyle;rounded=0;orthogonalLoop=1;jettySize=auto;html=1;exitX=0.5;exitY=1;exitDx=0;exitDy=0;entryX=0.5;entryY=0;entryDx=0;entryDy=0;" parent="vNkRoHx8s-_Z82SsAWss-76" source="vNkRoHx8s-_Z82SsAWss-54" target="vNkRoHx8s-_Z82SsAWss-55" edge="1">
          <mxGeometry relative="1" as="geometry" />
        </mxCell>
        <mxCell id="vNkRoHx8s-_Z82SsAWss-65" style="edgeStyle=orthogonalEdgeStyle;rounded=0;orthogonalLoop=1;jettySize=auto;html=1;exitX=0.5;exitY=1;exitDx=0;exitDy=0;entryX=0.5;entryY=0;entryDx=0;entryDy=0;" parent="vNkRoHx8s-_Z82SsAWss-76" source="vNkRoHx8s-_Z82SsAWss-55" target="vNkRoHx8s-_Z82SsAWss-56" edge="1">
          <mxGeometry relative="1" as="geometry" />
        </mxCell>
        <mxCell id="vNkRoHx8s-_Z82SsAWss-67" style="edgeStyle=orthogonalEdgeStyle;rounded=0;orthogonalLoop=1;jettySize=auto;html=1;exitX=0.5;exitY=1;exitDx=0;exitDy=0;entryX=0.5;entryY=0;entryDx=0;entryDy=0;" parent="vNkRoHx8s-_Z82SsAWss-76" source="vNkRoHx8s-_Z82SsAWss-57" target="vNkRoHx8s-_Z82SsAWss-58" edge="1">
          <mxGeometry relative="1" as="geometry" />
        </mxCell>
        <mxCell id="vNkRoHx8s-_Z82SsAWss-68" style="edgeStyle=orthogonalEdgeStyle;rounded=0;orthogonalLoop=1;jettySize=auto;html=1;exitX=0.5;exitY=1;exitDx=0;exitDy=0;entryX=0.5;entryY=0;entryDx=0;entryDy=0;" parent="vNkRoHx8s-_Z82SsAWss-76" source="vNkRoHx8s-_Z82SsAWss-58" target="vNkRoHx8s-_Z82SsAWss-59" edge="1">
          <mxGeometry relative="1" as="geometry" />
        </mxCell>
        <mxCell id="vNkRoHx8s-_Z82SsAWss-69" style="edgeStyle=orthogonalEdgeStyle;rounded=0;orthogonalLoop=1;jettySize=auto;html=1;exitX=0.5;exitY=1;exitDx=0;exitDy=0;entryX=0.5;entryY=0;entryDx=0;entryDy=0;" parent="vNkRoHx8s-_Z82SsAWss-76" source="vNkRoHx8s-_Z82SsAWss-59" target="vNkRoHx8s-_Z82SsAWss-60" edge="1">
          <mxGeometry relative="1" as="geometry" />
        </mxCell>
        <mxCell id="vNkRoHx8s-_Z82SsAWss-70" style="edgeStyle=orthogonalEdgeStyle;rounded=0;orthogonalLoop=1;jettySize=auto;html=1;exitX=0.5;exitY=1;exitDx=0;exitDy=0;entryX=0.5;entryY=0;entryDx=0;entryDy=0;" parent="vNkRoHx8s-_Z82SsAWss-76" source="vNkRoHx8s-_Z82SsAWss-60" target="vNkRoHx8s-_Z82SsAWss-61" edge="1">
          <mxGeometry relative="1" as="geometry" />
        </mxCell>
        <mxCell id="vNkRoHx8s-_Z82SsAWss-72" style="edgeStyle=orthogonalEdgeStyle;rounded=0;orthogonalLoop=1;jettySize=auto;html=1;exitX=0.5;exitY=1;exitDx=0;exitDy=0;entryX=0.5;entryY=0;entryDx=0;entryDy=0;fontColor=#808080;strokeColor=#808080;" parent="vNkRoHx8s-_Z82SsAWss-78" source="vNkRoHx8s-_Z82SsAWss-62" target="vNkRoHx8s-_Z82SsAWss-54" edge="1">
          <mxGeometry relative="1" as="geometry" />
        </mxCell>
        <mxCell id="vNkRoHx8s-_Z82SsAWss-71" style="edgeStyle=orthogonalEdgeStyle;rounded=0;orthogonalLoop=1;jettySize=auto;html=1;exitX=0.5;exitY=1;exitDx=0;exitDy=0;entryX=0.5;entryY=0;entryDx=0;entryDy=0;fontColor=#808080;strokeColor=#808080;" parent="vNkRoHx8s-_Z82SsAWss-78" source="vNkRoHx8s-_Z82SsAWss-61" target="vNkRoHx8s-_Z82SsAWss-63" edge="1">
          <mxGeometry relative="1" as="geometry" />
        </mxCell>
        <mxCell id="vNkRoHx8s-_Z82SsAWss-80" style="edgeStyle=orthogonalEdgeStyle;rounded=0;orthogonalLoop=1;jettySize=auto;html=1;exitX=1;exitY=0.5;exitDx=0;exitDy=0;entryX=0;entryY=0.5;entryDx=0;entryDy=0;" parent="1" source="vNkRoHx8s-_Z82SsAWss-41" target="vNkRoHx8s-_Z82SsAWss-4" edge="1">
          <mxGeometry relative="1" as="geometry" />
        </mxCell>
        <mxCell id="vNkRoHx8s-_Z82SsAWss-81" style="edgeStyle=orthogonalEdgeStyle;rounded=0;orthogonalLoop=1;jettySize=auto;html=1;exitX=1;exitY=0.5;exitDx=0;exitDy=0;entryX=0;entryY=0.5;entryDx=0;entryDy=0;" parent="1" source="vNkRoHx8s-_Z82SsAWss-4" target="vNkRoHx8s-_Z82SsAWss-49" edge="1">
          <mxGeometry relative="1" as="geometry" />
        </mxCell>
        <mxCell id="vNkRoHx8s-_Z82SsAWss-151" value="" style="group" parent="1" vertex="1" connectable="0">
          <mxGeometry x="820" y="85" width="350" height="310" as="geometry" />
        </mxCell>
        <mxCell id="vNkRoHx8s-_Z82SsAWss-49" value="&lt;div style=&quot;&quot;&gt;&lt;span style=&quot;background-color: transparent; color: light-dark(rgb(0, 0, 0), rgb(255, 255, 255));&quot;&gt;Results&lt;/span&gt;&lt;/div&gt;" style="rounded=1;whiteSpace=wrap;html=1;dashed=1;dashPattern=8 8;verticalAlign=top;fontStyle=1;fontSize=13;align=center;" parent="vNkRoHx8s-_Z82SsAWss-151" vertex="1">
          <mxGeometry width="350" height="310" as="geometry" />
        </mxCell>
        <mxCell id="vNkRoHx8s-_Z82SsAWss-82" value="Classification Report (Test Set)" style="shape=table;startSize=30;container=1;collapsible=0;childLayout=tableLayout;strokeColor=default;fontSize=13;fontStyle=1" parent="vNkRoHx8s-_Z82SsAWss-151" vertex="1">
          <mxGeometry x="15" y="35" width="320" height="250" as="geometry" />
        </mxCell>
        <mxCell id="vNkRoHx8s-_Z82SsAWss-83" value="" style="shape=tableRow;horizontal=0;startSize=0;swimlaneHead=0;swimlaneBody=0;strokeColor=inherit;top=0;left=0;bottom=0;right=0;collapsible=0;dropTarget=0;fillColor=none;points=[[0,0.5],[1,0.5]];portConstraint=eastwest;fontSize=16;" parent="vNkRoHx8s-_Z82SsAWss-82" vertex="1">
          <mxGeometry y="30" width="320" height="20" as="geometry" />
        </mxCell>
        <mxCell id="vNkRoHx8s-_Z82SsAWss-84" value="" style="shape=partialRectangle;html=1;whiteSpace=wrap;connectable=0;strokeColor=inherit;overflow=hidden;fillColor=none;top=0;left=0;bottom=0;right=0;pointerEvents=1;fontSize=12;fontStyle=1" parent="vNkRoHx8s-_Z82SsAWss-83" vertex="1">
          <mxGeometry width="80" height="20" as="geometry">
            <mxRectangle width="80" height="20" as="alternateBounds" />
          </mxGeometry>
        </mxCell>
        <mxCell id="vNkRoHx8s-_Z82SsAWss-85" value="precision" style="shape=partialRectangle;html=1;whiteSpace=wrap;connectable=0;strokeColor=inherit;overflow=hidden;fillColor=none;top=0;left=0;bottom=0;right=0;pointerEvents=1;fontSize=12;fontStyle=1" parent="vNkRoHx8s-_Z82SsAWss-83" vertex="1">
          <mxGeometry x="80" width="60" height="20" as="geometry">
            <mxRectangle width="60" height="20" as="alternateBounds" />
          </mxGeometry>
        </mxCell>
        <mxCell id="vNkRoHx8s-_Z82SsAWss-86" value="recall" style="shape=partialRectangle;html=1;whiteSpace=wrap;connectable=0;strokeColor=inherit;overflow=hidden;fillColor=none;top=0;left=0;bottom=0;right=0;pointerEvents=1;fontSize=12;fontStyle=1" parent="vNkRoHx8s-_Z82SsAWss-83" vertex="1">
          <mxGeometry x="140" width="60" height="20" as="geometry">
            <mxRectangle width="60" height="20" as="alternateBounds" />
          </mxGeometry>
        </mxCell>
        <mxCell id="vNkRoHx8s-_Z82SsAWss-104" value="f1" style="shape=partialRectangle;html=1;whiteSpace=wrap;connectable=0;strokeColor=inherit;overflow=hidden;fillColor=none;top=0;left=0;bottom=0;right=0;pointerEvents=1;fontSize=12;fontStyle=1" parent="vNkRoHx8s-_Z82SsAWss-83" vertex="1">
          <mxGeometry x="200" width="60" height="20" as="geometry">
            <mxRectangle width="60" height="20" as="alternateBounds" />
          </mxGeometry>
        </mxCell>
        <mxCell id="vNkRoHx8s-_Z82SsAWss-109" value="support" style="shape=partialRectangle;html=1;whiteSpace=wrap;connectable=0;strokeColor=inherit;overflow=hidden;fillColor=none;top=0;left=0;bottom=0;right=0;pointerEvents=1;fontSize=12;fontStyle=1" parent="vNkRoHx8s-_Z82SsAWss-83" vertex="1">
          <mxGeometry x="260" width="60" height="20" as="geometry">
            <mxRectangle width="60" height="20" as="alternateBounds" />
          </mxGeometry>
        </mxCell>
        <mxCell id="vNkRoHx8s-_Z82SsAWss-100" style="shape=tableRow;horizontal=0;startSize=0;swimlaneHead=0;swimlaneBody=0;strokeColor=inherit;top=0;left=0;bottom=0;right=0;collapsible=0;dropTarget=0;fillColor=none;points=[[0,0.5],[1,0.5]];portConstraint=eastwest;fontSize=16;" parent="vNkRoHx8s-_Z82SsAWss-82" vertex="1">
          <mxGeometry y="50" width="320" height="20" as="geometry" />
        </mxCell>
        <mxCell id="vNkRoHx8s-_Z82SsAWss-101" value="bench_press" style="shape=partialRectangle;html=1;whiteSpace=wrap;connectable=0;strokeColor=inherit;overflow=hidden;fillColor=none;top=0;left=0;bottom=0;right=0;pointerEvents=1;fontSize=12;fontStyle=1" parent="vNkRoHx8s-_Z82SsAWss-100" vertex="1">
          <mxGeometry width="80" height="20" as="geometry">
            <mxRectangle width="80" height="20" as="alternateBounds" />
          </mxGeometry>
        </mxCell>
        <mxCell id="vNkRoHx8s-_Z82SsAWss-102" value="1.00" style="shape=partialRectangle;html=1;whiteSpace=wrap;connectable=0;strokeColor=inherit;overflow=hidden;fillColor=none;top=0;left=0;bottom=0;right=0;pointerEvents=1;fontSize=12;" parent="vNkRoHx8s-_Z82SsAWss-100" vertex="1">
          <mxGeometry x="80" width="60" height="20" as="geometry">
            <mxRectangle width="60" height="20" as="alternateBounds" />
          </mxGeometry>
        </mxCell>
        <mxCell id="vNkRoHx8s-_Z82SsAWss-103" value="0.98" style="shape=partialRectangle;html=1;whiteSpace=wrap;connectable=0;strokeColor=inherit;overflow=hidden;fillColor=none;top=0;left=0;bottom=0;right=0;pointerEvents=1;fontSize=12;" parent="vNkRoHx8s-_Z82SsAWss-100" vertex="1">
          <mxGeometry x="140" width="60" height="20" as="geometry">
            <mxRectangle width="60" height="20" as="alternateBounds" />
          </mxGeometry>
        </mxCell>
        <mxCell id="vNkRoHx8s-_Z82SsAWss-105" value="0.99" style="shape=partialRectangle;html=1;whiteSpace=wrap;connectable=0;strokeColor=inherit;overflow=hidden;fillColor=none;top=0;left=0;bottom=0;right=0;pointerEvents=1;fontSize=12;" parent="vNkRoHx8s-_Z82SsAWss-100" vertex="1">
          <mxGeometry x="200" width="60" height="20" as="geometry">
            <mxRectangle width="60" height="20" as="alternateBounds" />
          </mxGeometry>
        </mxCell>
        <mxCell id="vNkRoHx8s-_Z82SsAWss-110" value="120" style="shape=partialRectangle;html=1;whiteSpace=wrap;connectable=0;strokeColor=inherit;overflow=hidden;fillColor=none;top=0;left=0;bottom=0;right=0;pointerEvents=1;fontSize=12;" parent="vNkRoHx8s-_Z82SsAWss-100" vertex="1">
          <mxGeometry x="260" width="60" height="20" as="geometry">
            <mxRectangle width="60" height="20" as="alternateBounds" />
          </mxGeometry>
        </mxCell>
        <mxCell id="vNkRoHx8s-_Z82SsAWss-96" style="shape=tableRow;horizontal=0;startSize=0;swimlaneHead=0;swimlaneBody=0;strokeColor=inherit;top=0;left=0;bottom=0;right=0;collapsible=0;dropTarget=0;fillColor=none;points=[[0,0.5],[1,0.5]];portConstraint=eastwest;fontSize=16;" parent="vNkRoHx8s-_Z82SsAWss-82" vertex="1">
          <mxGeometry y="70" width="320" height="20" as="geometry" />
        </mxCell>
        <mxCell id="vNkRoHx8s-_Z82SsAWss-97" value="squat" style="shape=partialRectangle;html=1;whiteSpace=wrap;connectable=0;strokeColor=inherit;overflow=hidden;fillColor=none;top=0;left=0;bottom=0;right=0;pointerEvents=1;fontSize=12;fontStyle=1" parent="vNkRoHx8s-_Z82SsAWss-96" vertex="1">
          <mxGeometry width="80" height="20" as="geometry">
            <mxRectangle width="80" height="20" as="alternateBounds" />
          </mxGeometry>
        </mxCell>
        <mxCell id="vNkRoHx8s-_Z82SsAWss-98" value="0.99" style="shape=partialRectangle;html=1;whiteSpace=wrap;connectable=0;strokeColor=inherit;overflow=hidden;fillColor=none;top=0;left=0;bottom=0;right=0;pointerEvents=1;fontSize=12;" parent="vNkRoHx8s-_Z82SsAWss-96" vertex="1">
          <mxGeometry x="80" width="60" height="20" as="geometry">
            <mxRectangle width="60" height="20" as="alternateBounds" />
          </mxGeometry>
        </mxCell>
        <mxCell id="vNkRoHx8s-_Z82SsAWss-99" value="0.99" style="shape=partialRectangle;html=1;whiteSpace=wrap;connectable=0;strokeColor=inherit;overflow=hidden;fillColor=none;top=0;left=0;bottom=0;right=0;pointerEvents=1;fontSize=12;" parent="vNkRoHx8s-_Z82SsAWss-96" vertex="1">
          <mxGeometry x="140" width="60" height="20" as="geometry">
            <mxRectangle width="60" height="20" as="alternateBounds" />
          </mxGeometry>
        </mxCell>
        <mxCell id="vNkRoHx8s-_Z82SsAWss-106" value="0.99" style="shape=partialRectangle;html=1;whiteSpace=wrap;connectable=0;strokeColor=inherit;overflow=hidden;fillColor=none;top=0;left=0;bottom=0;right=0;pointerEvents=1;fontSize=12;" parent="vNkRoHx8s-_Z82SsAWss-96" vertex="1">
          <mxGeometry x="200" width="60" height="20" as="geometry">
            <mxRectangle width="60" height="20" as="alternateBounds" />
          </mxGeometry>
        </mxCell>
        <mxCell id="vNkRoHx8s-_Z82SsAWss-111" value="120" style="shape=partialRectangle;html=1;whiteSpace=wrap;connectable=0;strokeColor=inherit;overflow=hidden;fillColor=none;top=0;left=0;bottom=0;right=0;pointerEvents=1;fontSize=12;" parent="vNkRoHx8s-_Z82SsAWss-96" vertex="1">
          <mxGeometry x="260" width="60" height="20" as="geometry">
            <mxRectangle width="60" height="20" as="alternateBounds" />
          </mxGeometry>
        </mxCell>
        <mxCell id="vNkRoHx8s-_Z82SsAWss-87" value="" style="shape=tableRow;horizontal=0;startSize=0;swimlaneHead=0;swimlaneBody=0;strokeColor=inherit;top=0;left=0;bottom=0;right=0;collapsible=0;dropTarget=0;fillColor=none;points=[[0,0.5],[1,0.5]];portConstraint=eastwest;fontSize=16;" parent="vNkRoHx8s-_Z82SsAWss-82" vertex="1">
          <mxGeometry y="90" width="320" height="20" as="geometry" />
        </mxCell>
        <mxCell id="vNkRoHx8s-_Z82SsAWss-88" value="lat_machine" style="shape=partialRectangle;html=1;whiteSpace=wrap;connectable=0;strokeColor=inherit;overflow=hidden;fillColor=none;top=0;left=0;bottom=0;right=0;pointerEvents=1;fontSize=12;fontStyle=1" parent="vNkRoHx8s-_Z82SsAWss-87" vertex="1">
          <mxGeometry width="80" height="20" as="geometry">
            <mxRectangle width="80" height="20" as="alternateBounds" />
          </mxGeometry>
        </mxCell>
        <mxCell id="vNkRoHx8s-_Z82SsAWss-89" value="0.98" style="shape=partialRectangle;html=1;whiteSpace=wrap;connectable=0;strokeColor=inherit;overflow=hidden;fillColor=none;top=0;left=0;bottom=0;right=0;pointerEvents=1;fontSize=12;" parent="vNkRoHx8s-_Z82SsAWss-87" vertex="1">
          <mxGeometry x="80" width="60" height="20" as="geometry">
            <mxRectangle width="60" height="20" as="alternateBounds" />
          </mxGeometry>
        </mxCell>
        <mxCell id="vNkRoHx8s-_Z82SsAWss-90" value="0.99" style="shape=partialRectangle;html=1;whiteSpace=wrap;connectable=0;strokeColor=inherit;overflow=hidden;fillColor=none;top=0;left=0;bottom=0;right=0;pointerEvents=1;fontSize=12;" parent="vNkRoHx8s-_Z82SsAWss-87" vertex="1">
          <mxGeometry x="140" width="60" height="20" as="geometry">
            <mxRectangle width="60" height="20" as="alternateBounds" />
          </mxGeometry>
        </mxCell>
        <mxCell id="vNkRoHx8s-_Z82SsAWss-107" value="0.99" style="shape=partialRectangle;html=1;whiteSpace=wrap;connectable=0;strokeColor=inherit;overflow=hidden;fillColor=none;top=0;left=0;bottom=0;right=0;pointerEvents=1;fontSize=12;" parent="vNkRoHx8s-_Z82SsAWss-87" vertex="1">
          <mxGeometry x="200" width="60" height="20" as="geometry">
            <mxRectangle width="60" height="20" as="alternateBounds" />
          </mxGeometry>
        </mxCell>
        <mxCell id="vNkRoHx8s-_Z82SsAWss-112" value="120" style="shape=partialRectangle;html=1;whiteSpace=wrap;connectable=0;strokeColor=inherit;overflow=hidden;fillColor=none;top=0;left=0;bottom=0;right=0;pointerEvents=1;fontSize=12;" parent="vNkRoHx8s-_Z82SsAWss-87" vertex="1">
          <mxGeometry x="260" width="60" height="20" as="geometry">
            <mxRectangle width="60" height="20" as="alternateBounds" />
          </mxGeometry>
        </mxCell>
        <mxCell id="vNkRoHx8s-_Z82SsAWss-91" value="" style="shape=tableRow;horizontal=0;startSize=0;swimlaneHead=0;swimlaneBody=0;strokeColor=inherit;top=0;left=0;bottom=0;right=0;collapsible=0;dropTarget=0;fillColor=none;points=[[0,0.5],[1,0.5]];portConstraint=eastwest;fontSize=16;" parent="vNkRoHx8s-_Z82SsAWss-82" vertex="1">
          <mxGeometry y="110" width="320" height="20" as="geometry" />
        </mxCell>
        <mxCell id="vNkRoHx8s-_Z82SsAWss-92" value="pull_up" style="shape=partialRectangle;html=1;whiteSpace=wrap;connectable=0;strokeColor=inherit;overflow=hidden;fillColor=none;top=0;left=0;bottom=0;right=0;pointerEvents=1;fontSize=12;fontStyle=1" parent="vNkRoHx8s-_Z82SsAWss-91" vertex="1">
          <mxGeometry width="80" height="20" as="geometry">
            <mxRectangle width="80" height="20" as="alternateBounds" />
          </mxGeometry>
        </mxCell>
        <mxCell id="vNkRoHx8s-_Z82SsAWss-93" value="1.00" style="shape=partialRectangle;html=1;whiteSpace=wrap;connectable=0;strokeColor=inherit;overflow=hidden;fillColor=none;top=0;left=0;bottom=0;right=0;pointerEvents=1;fontSize=12;" parent="vNkRoHx8s-_Z82SsAWss-91" vertex="1">
          <mxGeometry x="80" width="60" height="20" as="geometry">
            <mxRectangle width="60" height="20" as="alternateBounds" />
          </mxGeometry>
        </mxCell>
        <mxCell id="vNkRoHx8s-_Z82SsAWss-94" value="0.99" style="shape=partialRectangle;html=1;whiteSpace=wrap;connectable=0;strokeColor=inherit;overflow=hidden;fillColor=none;top=0;left=0;bottom=0;right=0;pointerEvents=1;fontSize=12;" parent="vNkRoHx8s-_Z82SsAWss-91" vertex="1">
          <mxGeometry x="140" width="60" height="20" as="geometry">
            <mxRectangle width="60" height="20" as="alternateBounds" />
          </mxGeometry>
        </mxCell>
        <mxCell id="vNkRoHx8s-_Z82SsAWss-108" value="1.00" style="shape=partialRectangle;html=1;whiteSpace=wrap;connectable=0;strokeColor=inherit;overflow=hidden;fillColor=none;top=0;left=0;bottom=0;right=0;pointerEvents=1;fontSize=12;" parent="vNkRoHx8s-_Z82SsAWss-91" vertex="1">
          <mxGeometry x="200" width="60" height="20" as="geometry">
            <mxRectangle width="60" height="20" as="alternateBounds" />
          </mxGeometry>
        </mxCell>
        <mxCell id="vNkRoHx8s-_Z82SsAWss-113" value="120" style="shape=partialRectangle;html=1;whiteSpace=wrap;connectable=0;strokeColor=inherit;overflow=hidden;fillColor=none;top=0;left=0;bottom=0;right=0;pointerEvents=1;fontSize=12;" parent="vNkRoHx8s-_Z82SsAWss-91" vertex="1">
          <mxGeometry x="260" width="60" height="20" as="geometry">
            <mxRectangle width="60" height="20" as="alternateBounds" />
          </mxGeometry>
        </mxCell>
        <mxCell id="vNkRoHx8s-_Z82SsAWss-120" style="shape=tableRow;horizontal=0;startSize=0;swimlaneHead=0;swimlaneBody=0;strokeColor=inherit;top=0;left=0;bottom=0;right=0;collapsible=0;dropTarget=0;fillColor=none;points=[[0,0.5],[1,0.5]];portConstraint=eastwest;fontSize=16;" parent="vNkRoHx8s-_Z82SsAWss-82" vertex="1">
          <mxGeometry y="130" width="320" height="20" as="geometry" />
        </mxCell>
        <mxCell id="vNkRoHx8s-_Z82SsAWss-121" value="push_up" style="shape=partialRectangle;html=1;whiteSpace=wrap;connectable=0;strokeColor=inherit;overflow=hidden;fillColor=none;top=0;left=0;bottom=0;right=0;pointerEvents=1;fontSize=12;fontStyle=1" parent="vNkRoHx8s-_Z82SsAWss-120" vertex="1">
          <mxGeometry width="80" height="20" as="geometry">
            <mxRectangle width="80" height="20" as="alternateBounds" />
          </mxGeometry>
        </mxCell>
        <mxCell id="vNkRoHx8s-_Z82SsAWss-122" value="0.98" style="shape=partialRectangle;html=1;whiteSpace=wrap;connectable=0;strokeColor=inherit;overflow=hidden;fillColor=none;top=0;left=0;bottom=0;right=0;pointerEvents=1;fontSize=12;" parent="vNkRoHx8s-_Z82SsAWss-120" vertex="1">
          <mxGeometry x="80" width="60" height="20" as="geometry">
            <mxRectangle width="60" height="20" as="alternateBounds" />
          </mxGeometry>
        </mxCell>
        <mxCell id="vNkRoHx8s-_Z82SsAWss-123" value="1.00" style="shape=partialRectangle;html=1;whiteSpace=wrap;connectable=0;strokeColor=inherit;overflow=hidden;fillColor=none;top=0;left=0;bottom=0;right=0;pointerEvents=1;fontSize=12;" parent="vNkRoHx8s-_Z82SsAWss-120" vertex="1">
          <mxGeometry x="140" width="60" height="20" as="geometry">
            <mxRectangle width="60" height="20" as="alternateBounds" />
          </mxGeometry>
        </mxCell>
        <mxCell id="vNkRoHx8s-_Z82SsAWss-124" value="0.99" style="shape=partialRectangle;html=1;whiteSpace=wrap;connectable=0;strokeColor=inherit;overflow=hidden;fillColor=none;top=0;left=0;bottom=0;right=0;pointerEvents=1;fontSize=12;" parent="vNkRoHx8s-_Z82SsAWss-120" vertex="1">
          <mxGeometry x="200" width="60" height="20" as="geometry">
            <mxRectangle width="60" height="20" as="alternateBounds" />
          </mxGeometry>
        </mxCell>
        <mxCell id="vNkRoHx8s-_Z82SsAWss-125" value="120" style="shape=partialRectangle;html=1;whiteSpace=wrap;connectable=0;strokeColor=inherit;overflow=hidden;fillColor=none;top=0;left=0;bottom=0;right=0;pointerEvents=1;fontSize=12;" parent="vNkRoHx8s-_Z82SsAWss-120" vertex="1">
          <mxGeometry x="260" width="60" height="20" as="geometry">
            <mxRectangle width="60" height="20" as="alternateBounds" />
          </mxGeometry>
        </mxCell>
        <mxCell id="vNkRoHx8s-_Z82SsAWss-114" style="shape=tableRow;horizontal=0;startSize=0;swimlaneHead=0;swimlaneBody=0;strokeColor=inherit;top=0;left=0;bottom=0;right=0;collapsible=0;dropTarget=0;fillColor=none;points=[[0,0.5],[1,0.5]];portConstraint=eastwest;fontSize=16;" parent="vNkRoHx8s-_Z82SsAWss-82" vertex="1">
          <mxGeometry y="150" width="320" height="20" as="geometry" />
        </mxCell>
        <mxCell id="vNkRoHx8s-_Z82SsAWss-115" value="split_squat" style="shape=partialRectangle;html=1;whiteSpace=wrap;connectable=0;strokeColor=inherit;overflow=hidden;fillColor=none;top=0;left=0;bottom=0;right=0;pointerEvents=1;fontSize=12;fontStyle=1" parent="vNkRoHx8s-_Z82SsAWss-114" vertex="1">
          <mxGeometry width="80" height="20" as="geometry">
            <mxRectangle width="80" height="20" as="alternateBounds" />
          </mxGeometry>
        </mxCell>
        <mxCell id="vNkRoHx8s-_Z82SsAWss-116" value="1.00" style="shape=partialRectangle;html=1;whiteSpace=wrap;connectable=0;strokeColor=inherit;overflow=hidden;fillColor=none;top=0;left=0;bottom=0;right=0;pointerEvents=1;fontSize=12;" parent="vNkRoHx8s-_Z82SsAWss-114" vertex="1">
          <mxGeometry x="80" width="60" height="20" as="geometry">
            <mxRectangle width="60" height="20" as="alternateBounds" />
          </mxGeometry>
        </mxCell>
        <mxCell id="vNkRoHx8s-_Z82SsAWss-117" value="1.00" style="shape=partialRectangle;html=1;whiteSpace=wrap;connectable=0;strokeColor=inherit;overflow=hidden;fillColor=none;top=0;left=0;bottom=0;right=0;pointerEvents=1;fontSize=12;" parent="vNkRoHx8s-_Z82SsAWss-114" vertex="1">
          <mxGeometry x="140" width="60" height="20" as="geometry">
            <mxRectangle width="60" height="20" as="alternateBounds" />
          </mxGeometry>
        </mxCell>
        <mxCell id="vNkRoHx8s-_Z82SsAWss-118" value="1.00" style="shape=partialRectangle;html=1;whiteSpace=wrap;connectable=0;strokeColor=inherit;overflow=hidden;fillColor=none;top=0;left=0;bottom=0;right=0;pointerEvents=1;fontSize=12;" parent="vNkRoHx8s-_Z82SsAWss-114" vertex="1">
          <mxGeometry x="200" width="60" height="20" as="geometry">
            <mxRectangle width="60" height="20" as="alternateBounds" />
          </mxGeometry>
        </mxCell>
        <mxCell id="vNkRoHx8s-_Z82SsAWss-119" value="120" style="shape=partialRectangle;html=1;whiteSpace=wrap;connectable=0;strokeColor=inherit;overflow=hidden;fillColor=none;top=0;left=0;bottom=0;right=0;pointerEvents=1;fontSize=12;" parent="vNkRoHx8s-_Z82SsAWss-114" vertex="1">
          <mxGeometry x="260" width="60" height="20" as="geometry">
            <mxRectangle width="60" height="20" as="alternateBounds" />
          </mxGeometry>
        </mxCell>
        <mxCell id="vNkRoHx8s-_Z82SsAWss-145" style="shape=tableRow;horizontal=0;startSize=0;swimlaneHead=0;swimlaneBody=0;strokeColor=inherit;top=0;left=0;bottom=0;right=0;collapsible=0;dropTarget=0;fillColor=none;points=[[0,0.5],[1,0.5]];portConstraint=eastwest;fontSize=16;" parent="vNkRoHx8s-_Z82SsAWss-82" vertex="1">
          <mxGeometry y="170" width="320" height="20" as="geometry" />
        </mxCell>
        <mxCell id="vNkRoHx8s-_Z82SsAWss-146" style="shape=partialRectangle;html=1;whiteSpace=wrap;connectable=0;strokeColor=inherit;overflow=hidden;fillColor=none;top=0;left=0;bottom=0;right=0;pointerEvents=1;fontSize=12;fontStyle=1" parent="vNkRoHx8s-_Z82SsAWss-145" vertex="1">
          <mxGeometry width="80" height="20" as="geometry">
            <mxRectangle width="80" height="20" as="alternateBounds" />
          </mxGeometry>
        </mxCell>
        <mxCell id="vNkRoHx8s-_Z82SsAWss-147" style="shape=partialRectangle;html=1;whiteSpace=wrap;connectable=0;strokeColor=inherit;overflow=hidden;fillColor=none;top=0;left=0;bottom=0;right=0;pointerEvents=1;fontSize=12;" parent="vNkRoHx8s-_Z82SsAWss-145" vertex="1">
          <mxGeometry x="80" width="60" height="20" as="geometry">
            <mxRectangle width="60" height="20" as="alternateBounds" />
          </mxGeometry>
        </mxCell>
        <mxCell id="vNkRoHx8s-_Z82SsAWss-148" style="shape=partialRectangle;html=1;whiteSpace=wrap;connectable=0;strokeColor=inherit;overflow=hidden;fillColor=none;top=0;left=0;bottom=0;right=0;pointerEvents=1;fontSize=12;" parent="vNkRoHx8s-_Z82SsAWss-145" vertex="1">
          <mxGeometry x="140" width="60" height="20" as="geometry">
            <mxRectangle width="60" height="20" as="alternateBounds" />
          </mxGeometry>
        </mxCell>
        <mxCell id="vNkRoHx8s-_Z82SsAWss-149" style="shape=partialRectangle;html=1;whiteSpace=wrap;connectable=0;strokeColor=inherit;overflow=hidden;fillColor=none;top=0;left=0;bottom=0;right=0;pointerEvents=1;fontSize=12;" parent="vNkRoHx8s-_Z82SsAWss-145" vertex="1">
          <mxGeometry x="200" width="60" height="20" as="geometry">
            <mxRectangle width="60" height="20" as="alternateBounds" />
          </mxGeometry>
        </mxCell>
        <mxCell id="vNkRoHx8s-_Z82SsAWss-150" style="shape=partialRectangle;html=1;whiteSpace=wrap;connectable=0;strokeColor=inherit;overflow=hidden;fillColor=none;top=0;left=0;bottom=0;right=0;pointerEvents=1;fontSize=12;" parent="vNkRoHx8s-_Z82SsAWss-145" vertex="1">
          <mxGeometry x="260" width="60" height="20" as="geometry">
            <mxRectangle width="60" height="20" as="alternateBounds" />
          </mxGeometry>
        </mxCell>
        <mxCell id="vNkRoHx8s-_Z82SsAWss-139" style="shape=tableRow;horizontal=0;startSize=0;swimlaneHead=0;swimlaneBody=0;strokeColor=inherit;top=0;left=0;bottom=0;right=0;collapsible=0;dropTarget=0;fillColor=none;points=[[0,0.5],[1,0.5]];portConstraint=eastwest;fontSize=16;" parent="vNkRoHx8s-_Z82SsAWss-82" vertex="1">
          <mxGeometry y="190" width="320" height="20" as="geometry" />
        </mxCell>
        <mxCell id="vNkRoHx8s-_Z82SsAWss-140" value="accuracy" style="shape=partialRectangle;html=1;whiteSpace=wrap;connectable=0;strokeColor=inherit;overflow=hidden;fillColor=none;top=0;left=0;bottom=0;right=0;pointerEvents=1;fontSize=12;fontStyle=1" parent="vNkRoHx8s-_Z82SsAWss-139" vertex="1">
          <mxGeometry width="80" height="20" as="geometry">
            <mxRectangle width="80" height="20" as="alternateBounds" />
          </mxGeometry>
        </mxCell>
        <mxCell id="vNkRoHx8s-_Z82SsAWss-141" style="shape=partialRectangle;html=1;whiteSpace=wrap;connectable=0;strokeColor=inherit;overflow=hidden;fillColor=none;top=0;left=0;bottom=0;right=0;pointerEvents=1;fontSize=12;" parent="vNkRoHx8s-_Z82SsAWss-139" vertex="1">
          <mxGeometry x="80" width="60" height="20" as="geometry">
            <mxRectangle width="60" height="20" as="alternateBounds" />
          </mxGeometry>
        </mxCell>
        <mxCell id="vNkRoHx8s-_Z82SsAWss-142" style="shape=partialRectangle;html=1;whiteSpace=wrap;connectable=0;strokeColor=inherit;overflow=hidden;fillColor=none;top=0;left=0;bottom=0;right=0;pointerEvents=1;fontSize=12;" parent="vNkRoHx8s-_Z82SsAWss-139" vertex="1">
          <mxGeometry x="140" width="60" height="20" as="geometry">
            <mxRectangle width="60" height="20" as="alternateBounds" />
          </mxGeometry>
        </mxCell>
        <mxCell id="vNkRoHx8s-_Z82SsAWss-143" value="0.99" style="shape=partialRectangle;html=1;whiteSpace=wrap;connectable=0;strokeColor=inherit;overflow=hidden;fillColor=none;top=0;left=0;bottom=0;right=0;pointerEvents=1;fontSize=12;" parent="vNkRoHx8s-_Z82SsAWss-139" vertex="1">
          <mxGeometry x="200" width="60" height="20" as="geometry">
            <mxRectangle width="60" height="20" as="alternateBounds" />
          </mxGeometry>
        </mxCell>
        <mxCell id="vNkRoHx8s-_Z82SsAWss-144" value="720" style="shape=partialRectangle;html=1;whiteSpace=wrap;connectable=0;strokeColor=inherit;overflow=hidden;fillColor=none;top=0;left=0;bottom=0;right=0;pointerEvents=1;fontSize=12;" parent="vNkRoHx8s-_Z82SsAWss-139" vertex="1">
          <mxGeometry x="260" width="60" height="20" as="geometry">
            <mxRectangle width="60" height="20" as="alternateBounds" />
          </mxGeometry>
        </mxCell>
        <mxCell id="vNkRoHx8s-_Z82SsAWss-133" style="shape=tableRow;horizontal=0;startSize=0;swimlaneHead=0;swimlaneBody=0;strokeColor=inherit;top=0;left=0;bottom=0;right=0;collapsible=0;dropTarget=0;fillColor=none;points=[[0,0.5],[1,0.5]];portConstraint=eastwest;fontSize=16;" parent="vNkRoHx8s-_Z82SsAWss-82" vertex="1">
          <mxGeometry y="210" width="320" height="20" as="geometry" />
        </mxCell>
        <mxCell id="vNkRoHx8s-_Z82SsAWss-134" value="macro avg" style="shape=partialRectangle;html=1;whiteSpace=wrap;connectable=0;strokeColor=inherit;overflow=hidden;fillColor=none;top=0;left=0;bottom=0;right=0;pointerEvents=1;fontSize=12;fontStyle=1" parent="vNkRoHx8s-_Z82SsAWss-133" vertex="1">
          <mxGeometry width="80" height="20" as="geometry">
            <mxRectangle width="80" height="20" as="alternateBounds" />
          </mxGeometry>
        </mxCell>
        <mxCell id="vNkRoHx8s-_Z82SsAWss-135" value="0.99" style="shape=partialRectangle;html=1;whiteSpace=wrap;connectable=0;strokeColor=inherit;overflow=hidden;fillColor=none;top=0;left=0;bottom=0;right=0;pointerEvents=1;fontSize=12;" parent="vNkRoHx8s-_Z82SsAWss-133" vertex="1">
          <mxGeometry x="80" width="60" height="20" as="geometry">
            <mxRectangle width="60" height="20" as="alternateBounds" />
          </mxGeometry>
        </mxCell>
        <mxCell id="vNkRoHx8s-_Z82SsAWss-136" value="0.99" style="shape=partialRectangle;html=1;whiteSpace=wrap;connectable=0;strokeColor=inherit;overflow=hidden;fillColor=none;top=0;left=0;bottom=0;right=0;pointerEvents=1;fontSize=12;" parent="vNkRoHx8s-_Z82SsAWss-133" vertex="1">
          <mxGeometry x="140" width="60" height="20" as="geometry">
            <mxRectangle width="60" height="20" as="alternateBounds" />
          </mxGeometry>
        </mxCell>
        <mxCell id="vNkRoHx8s-_Z82SsAWss-137" value="0.99" style="shape=partialRectangle;html=1;whiteSpace=wrap;connectable=0;strokeColor=inherit;overflow=hidden;fillColor=none;top=0;left=0;bottom=0;right=0;pointerEvents=1;fontSize=12;" parent="vNkRoHx8s-_Z82SsAWss-133" vertex="1">
          <mxGeometry x="200" width="60" height="20" as="geometry">
            <mxRectangle width="60" height="20" as="alternateBounds" />
          </mxGeometry>
        </mxCell>
        <mxCell id="vNkRoHx8s-_Z82SsAWss-138" value="720" style="shape=partialRectangle;html=1;whiteSpace=wrap;connectable=0;strokeColor=inherit;overflow=hidden;fillColor=none;top=0;left=0;bottom=0;right=0;pointerEvents=1;fontSize=12;" parent="vNkRoHx8s-_Z82SsAWss-133" vertex="1">
          <mxGeometry x="260" width="60" height="20" as="geometry">
            <mxRectangle width="60" height="20" as="alternateBounds" />
          </mxGeometry>
        </mxCell>
        <mxCell id="vNkRoHx8s-_Z82SsAWss-127" style="shape=tableRow;horizontal=0;startSize=0;swimlaneHead=0;swimlaneBody=0;strokeColor=inherit;top=0;left=0;bottom=0;right=0;collapsible=0;dropTarget=0;fillColor=none;points=[[0,0.5],[1,0.5]];portConstraint=eastwest;fontSize=16;" parent="vNkRoHx8s-_Z82SsAWss-82" vertex="1">
          <mxGeometry y="230" width="320" height="20" as="geometry" />
        </mxCell>
        <mxCell id="vNkRoHx8s-_Z82SsAWss-128" value="weighted avg" style="shape=partialRectangle;html=1;whiteSpace=wrap;connectable=0;strokeColor=inherit;overflow=hidden;fillColor=none;top=0;left=0;bottom=0;right=0;pointerEvents=1;fontSize=12;fontStyle=1" parent="vNkRoHx8s-_Z82SsAWss-127" vertex="1">
          <mxGeometry width="80" height="20" as="geometry">
            <mxRectangle width="80" height="20" as="alternateBounds" />
          </mxGeometry>
        </mxCell>
        <mxCell id="vNkRoHx8s-_Z82SsAWss-129" value="0.99" style="shape=partialRectangle;html=1;whiteSpace=wrap;connectable=0;strokeColor=inherit;overflow=hidden;fillColor=none;top=0;left=0;bottom=0;right=0;pointerEvents=1;fontSize=12;" parent="vNkRoHx8s-_Z82SsAWss-127" vertex="1">
          <mxGeometry x="80" width="60" height="20" as="geometry">
            <mxRectangle width="60" height="20" as="alternateBounds" />
          </mxGeometry>
        </mxCell>
        <mxCell id="vNkRoHx8s-_Z82SsAWss-130" value="0.99" style="shape=partialRectangle;html=1;whiteSpace=wrap;connectable=0;strokeColor=inherit;overflow=hidden;fillColor=none;top=0;left=0;bottom=0;right=0;pointerEvents=1;fontSize=12;" parent="vNkRoHx8s-_Z82SsAWss-127" vertex="1">
          <mxGeometry x="140" width="60" height="20" as="geometry">
            <mxRectangle width="60" height="20" as="alternateBounds" />
          </mxGeometry>
        </mxCell>
        <mxCell id="vNkRoHx8s-_Z82SsAWss-131" value="0.99" style="shape=partialRectangle;html=1;whiteSpace=wrap;connectable=0;strokeColor=inherit;overflow=hidden;fillColor=none;top=0;left=0;bottom=0;right=0;pointerEvents=1;fontSize=12;" parent="vNkRoHx8s-_Z82SsAWss-127" vertex="1">
          <mxGeometry x="200" width="60" height="20" as="geometry">
            <mxRectangle width="60" height="20" as="alternateBounds" />
          </mxGeometry>
        </mxCell>
        <mxCell id="vNkRoHx8s-_Z82SsAWss-132" value="720" style="shape=partialRectangle;html=1;whiteSpace=wrap;connectable=0;strokeColor=inherit;overflow=hidden;fillColor=none;top=0;left=0;bottom=0;right=0;pointerEvents=1;fontSize=12;" parent="vNkRoHx8s-_Z82SsAWss-127" vertex="1">
          <mxGeometry x="260" width="60" height="20" as="geometry">
            <mxRectangle width="60" height="20" as="alternateBounds" />
          </mxGeometry>
        </mxCell>
        <mxCell id="vNkRoHx8s-_Z82SsAWss-153" value="" style="group" parent="1" vertex="1" connectable="0">
          <mxGeometry x="8" y="135" width="190" height="220" as="geometry" />
        </mxCell>
        <mxCell id="vNkRoHx8s-_Z82SsAWss-32" value="" style="group" parent="vNkRoHx8s-_Z82SsAWss-153" vertex="1" connectable="0">
          <mxGeometry width="190" height="220" as="geometry" />
        </mxCell>
        <mxCell id="2" value="Combined Dataset" style="rounded=1;whiteSpace=wrap;html=1;dashed=1;dashPattern=8 8;verticalAlign=top;fontStyle=1;fontSize=13;" parent="vNkRoHx8s-_Z82SsAWss-32" vertex="1">
          <mxGeometry y="-5" width="190" height="220" as="geometry" />
        </mxCell>
        <mxCell id="vNkRoHx8s-_Z82SsAWss-7" value="" style="shape=table;startSize=0;container=1;collapsible=0;childLayout=tableLayout;fontSize=12;" parent="vNkRoHx8s-_Z82SsAWss-32" vertex="1">
          <mxGeometry x="10" y="30" width="170" height="175" as="geometry" />
        </mxCell>
        <mxCell id="vNkRoHx8s-_Z82SsAWss-8" value="" style="shape=tableRow;horizontal=0;startSize=0;swimlaneHead=0;swimlaneBody=0;strokeColor=inherit;top=0;left=0;bottom=0;right=0;collapsible=0;dropTarget=0;fillColor=none;points=[[0,0.5],[1,0.5]];portConstraint=eastwest;fontSize=16;" parent="vNkRoHx8s-_Z82SsAWss-7" vertex="1">
          <mxGeometry width="170" height="25" as="geometry" />
        </mxCell>
        <mxCell id="vNkRoHx8s-_Z82SsAWss-9" value="&lt;b&gt;Label&lt;/b&gt;" style="shape=partialRectangle;html=1;whiteSpace=wrap;connectable=0;strokeColor=inherit;overflow=hidden;fillColor=none;top=0;left=0;bottom=0;right=0;pointerEvents=1;fontSize=12;" parent="vNkRoHx8s-_Z82SsAWss-8" vertex="1">
          <mxGeometry width="70" height="25" as="geometry">
            <mxRectangle width="70" height="25" as="alternateBounds" />
          </mxGeometry>
        </mxCell>
        <mxCell id="vNkRoHx8s-_Z82SsAWss-10" value="Class" style="shape=partialRectangle;html=1;whiteSpace=wrap;connectable=0;strokeColor=inherit;overflow=hidden;fillColor=none;top=0;left=0;bottom=0;right=0;pointerEvents=1;fontSize=12;fontStyle=1" parent="vNkRoHx8s-_Z82SsAWss-8" vertex="1">
          <mxGeometry x="70" width="100" height="25" as="geometry">
            <mxRectangle width="100" height="25" as="alternateBounds" />
          </mxGeometry>
        </mxCell>
        <mxCell id="vNkRoHx8s-_Z82SsAWss-12" value="" style="shape=tableRow;horizontal=0;startSize=0;swimlaneHead=0;swimlaneBody=0;strokeColor=inherit;top=0;left=0;bottom=0;right=0;collapsible=0;dropTarget=0;fillColor=none;points=[[0,0.5],[1,0.5]];portConstraint=eastwest;fontSize=16;" parent="vNkRoHx8s-_Z82SsAWss-7" vertex="1">
          <mxGeometry y="25" width="170" height="25" as="geometry" />
        </mxCell>
        <mxCell id="vNkRoHx8s-_Z82SsAWss-13" value="0" style="shape=partialRectangle;html=1;whiteSpace=wrap;connectable=0;strokeColor=inherit;overflow=hidden;fillColor=none;top=0;left=0;bottom=0;right=0;pointerEvents=1;fontSize=12;" parent="vNkRoHx8s-_Z82SsAWss-12" vertex="1">
          <mxGeometry width="70" height="25" as="geometry">
            <mxRectangle width="70" height="25" as="alternateBounds" />
          </mxGeometry>
        </mxCell>
        <mxCell id="vNkRoHx8s-_Z82SsAWss-14" value="&lt;span style=&quot;text-align: left;&quot;&gt;bench_press&lt;/span&gt;" style="shape=partialRectangle;html=1;whiteSpace=wrap;connectable=0;strokeColor=inherit;overflow=hidden;fillColor=none;top=0;left=0;bottom=0;right=0;pointerEvents=1;fontSize=12;" parent="vNkRoHx8s-_Z82SsAWss-12" vertex="1">
          <mxGeometry x="70" width="100" height="25" as="geometry">
            <mxRectangle width="100" height="25" as="alternateBounds" />
          </mxGeometry>
        </mxCell>
        <mxCell id="vNkRoHx8s-_Z82SsAWss-16" value="" style="shape=tableRow;horizontal=0;startSize=0;swimlaneHead=0;swimlaneBody=0;strokeColor=inherit;top=0;left=0;bottom=0;right=0;collapsible=0;dropTarget=0;fillColor=none;points=[[0,0.5],[1,0.5]];portConstraint=eastwest;fontSize=16;" parent="vNkRoHx8s-_Z82SsAWss-7" vertex="1">
          <mxGeometry y="50" width="170" height="25" as="geometry" />
        </mxCell>
        <mxCell id="vNkRoHx8s-_Z82SsAWss-17" value="1" style="shape=partialRectangle;html=1;whiteSpace=wrap;connectable=0;strokeColor=inherit;overflow=hidden;fillColor=none;top=0;left=0;bottom=0;right=0;pointerEvents=1;fontSize=12;" parent="vNkRoHx8s-_Z82SsAWss-16" vertex="1">
          <mxGeometry width="70" height="25" as="geometry">
            <mxRectangle width="70" height="25" as="alternateBounds" />
          </mxGeometry>
        </mxCell>
        <mxCell id="vNkRoHx8s-_Z82SsAWss-18" value="squat" style="shape=partialRectangle;html=1;whiteSpace=wrap;connectable=0;strokeColor=inherit;overflow=hidden;fillColor=none;top=0;left=0;bottom=0;right=0;pointerEvents=1;fontSize=12;" parent="vNkRoHx8s-_Z82SsAWss-16" vertex="1">
          <mxGeometry x="70" width="100" height="25" as="geometry">
            <mxRectangle width="100" height="25" as="alternateBounds" />
          </mxGeometry>
        </mxCell>
        <mxCell id="vNkRoHx8s-_Z82SsAWss-20" style="shape=tableRow;horizontal=0;startSize=0;swimlaneHead=0;swimlaneBody=0;strokeColor=inherit;top=0;left=0;bottom=0;right=0;collapsible=0;dropTarget=0;fillColor=none;points=[[0,0.5],[1,0.5]];portConstraint=eastwest;fontSize=16;" parent="vNkRoHx8s-_Z82SsAWss-7" vertex="1">
          <mxGeometry y="75" width="170" height="25" as="geometry" />
        </mxCell>
        <mxCell id="vNkRoHx8s-_Z82SsAWss-21" value="2" style="shape=partialRectangle;html=1;whiteSpace=wrap;connectable=0;strokeColor=inherit;overflow=hidden;fillColor=none;top=0;left=0;bottom=0;right=0;pointerEvents=1;fontSize=12;" parent="vNkRoHx8s-_Z82SsAWss-20" vertex="1">
          <mxGeometry width="70" height="25" as="geometry">
            <mxRectangle width="70" height="25" as="alternateBounds" />
          </mxGeometry>
        </mxCell>
        <mxCell id="vNkRoHx8s-_Z82SsAWss-22" value="lat_machine" style="shape=partialRectangle;html=1;whiteSpace=wrap;connectable=0;strokeColor=inherit;overflow=hidden;fillColor=none;top=0;left=0;bottom=0;right=0;pointerEvents=1;fontSize=12;" parent="vNkRoHx8s-_Z82SsAWss-20" vertex="1">
          <mxGeometry x="70" width="100" height="25" as="geometry">
            <mxRectangle width="100" height="25" as="alternateBounds" />
          </mxGeometry>
        </mxCell>
        <mxCell id="vNkRoHx8s-_Z82SsAWss-23" style="shape=tableRow;horizontal=0;startSize=0;swimlaneHead=0;swimlaneBody=0;strokeColor=inherit;top=0;left=0;bottom=0;right=0;collapsible=0;dropTarget=0;fillColor=none;points=[[0,0.5],[1,0.5]];portConstraint=eastwest;fontSize=16;" parent="vNkRoHx8s-_Z82SsAWss-7" vertex="1">
          <mxGeometry y="100" width="170" height="25" as="geometry" />
        </mxCell>
        <mxCell id="vNkRoHx8s-_Z82SsAWss-24" value="3" style="shape=partialRectangle;html=1;whiteSpace=wrap;connectable=0;strokeColor=inherit;overflow=hidden;fillColor=none;top=0;left=0;bottom=0;right=0;pointerEvents=1;fontSize=12;" parent="vNkRoHx8s-_Z82SsAWss-23" vertex="1">
          <mxGeometry width="70" height="25" as="geometry">
            <mxRectangle width="70" height="25" as="alternateBounds" />
          </mxGeometry>
        </mxCell>
        <mxCell id="vNkRoHx8s-_Z82SsAWss-25" value="pull_up" style="shape=partialRectangle;html=1;whiteSpace=wrap;connectable=0;strokeColor=inherit;overflow=hidden;fillColor=none;top=0;left=0;bottom=0;right=0;pointerEvents=1;fontSize=12;" parent="vNkRoHx8s-_Z82SsAWss-23" vertex="1">
          <mxGeometry x="70" width="100" height="25" as="geometry">
            <mxRectangle width="100" height="25" as="alternateBounds" />
          </mxGeometry>
        </mxCell>
        <mxCell id="vNkRoHx8s-_Z82SsAWss-26" style="shape=tableRow;horizontal=0;startSize=0;swimlaneHead=0;swimlaneBody=0;strokeColor=inherit;top=0;left=0;bottom=0;right=0;collapsible=0;dropTarget=0;fillColor=none;points=[[0,0.5],[1,0.5]];portConstraint=eastwest;fontSize=16;" parent="vNkRoHx8s-_Z82SsAWss-7" vertex="1">
          <mxGeometry y="125" width="170" height="25" as="geometry" />
        </mxCell>
        <mxCell id="vNkRoHx8s-_Z82SsAWss-27" value="4" style="shape=partialRectangle;html=1;whiteSpace=wrap;connectable=0;strokeColor=inherit;overflow=hidden;fillColor=none;top=0;left=0;bottom=0;right=0;pointerEvents=1;fontSize=12;" parent="vNkRoHx8s-_Z82SsAWss-26" vertex="1">
          <mxGeometry width="70" height="25" as="geometry">
            <mxRectangle width="70" height="25" as="alternateBounds" />
          </mxGeometry>
        </mxCell>
        <mxCell id="vNkRoHx8s-_Z82SsAWss-28" value="push_up" style="shape=partialRectangle;html=1;whiteSpace=wrap;connectable=0;strokeColor=inherit;overflow=hidden;fillColor=none;top=0;left=0;bottom=0;right=0;pointerEvents=1;fontSize=12;" parent="vNkRoHx8s-_Z82SsAWss-26" vertex="1">
          <mxGeometry x="70" width="100" height="25" as="geometry">
            <mxRectangle width="100" height="25" as="alternateBounds" />
          </mxGeometry>
        </mxCell>
        <mxCell id="vNkRoHx8s-_Z82SsAWss-29" style="shape=tableRow;horizontal=0;startSize=0;swimlaneHead=0;swimlaneBody=0;strokeColor=inherit;top=0;left=0;bottom=0;right=0;collapsible=0;dropTarget=0;fillColor=none;points=[[0,0.5],[1,0.5]];portConstraint=eastwest;fontSize=16;" parent="vNkRoHx8s-_Z82SsAWss-7" vertex="1">
          <mxGeometry y="150" width="170" height="25" as="geometry" />
        </mxCell>
        <mxCell id="vNkRoHx8s-_Z82SsAWss-30" value="5" style="shape=partialRectangle;html=1;whiteSpace=wrap;connectable=0;strokeColor=inherit;overflow=hidden;fillColor=none;top=0;left=0;bottom=0;right=0;pointerEvents=1;fontSize=12;" parent="vNkRoHx8s-_Z82SsAWss-29" vertex="1">
          <mxGeometry width="70" height="25" as="geometry">
            <mxRectangle width="70" height="25" as="alternateBounds" />
          </mxGeometry>
        </mxCell>
        <mxCell id="vNkRoHx8s-_Z82SsAWss-31" value="split_squat" style="shape=partialRectangle;html=1;whiteSpace=wrap;connectable=0;strokeColor=inherit;overflow=hidden;fillColor=none;top=0;left=0;bottom=0;right=0;pointerEvents=1;fontSize=12;" parent="vNkRoHx8s-_Z82SsAWss-29" vertex="1">
          <mxGeometry x="70" width="100" height="25" as="geometry">
            <mxRectangle width="100" height="25" as="alternateBounds" />
          </mxGeometry>
        </mxCell>
        <mxCell id="vNkRoHx8s-_Z82SsAWss-152" style="edgeStyle=orthogonalEdgeStyle;rounded=0;orthogonalLoop=1;jettySize=auto;html=1;exitX=1;exitY=0.5;exitDx=0;exitDy=0;entryX=0;entryY=0.5;entryDx=0;entryDy=0;" parent="vNkRoHx8s-_Z82SsAWss-153" source="2" target="vNkRoHx8s-_Z82SsAWss-2" edge="1">
          <mxGeometry relative="1" as="geometry" />
        </mxCell>
      </root>
    </mxGraphModel>
  </diagram>
  <diagram id="3yyjtssz6GaPxJ37TbZ1" name="PP Pipeline">
    <mxGraphModel dx="816" dy="543" grid="1" gridSize="10" guides="1" tooltips="1" connect="1" arrows="1" fold="1" page="1" pageScale="1" pageWidth="827" pageHeight="1169" math="0" shadow="0">
      <root>
        <mxCell id="0" />
        <mxCell id="1" parent="0" />
        <mxCell id="mpWUx1rwgWqyipZbEIYX-1" value="" style="group;fillColor=none;" vertex="1" connectable="0" parent="1">
          <mxGeometry x="576.5" y="432.5" width="150" height="110" as="geometry" />
        </mxCell>
        <mxCell id="mpWUx1rwgWqyipZbEIYX-2" value="&lt;div style=&quot;&quot;&gt;&lt;span style=&quot;background-color: transparent; color: light-dark(rgb(0, 0, 0), rgb(255, 255, 255));&quot;&gt;Train, Val, Test Split&lt;/span&gt;&lt;/div&gt;" style="rounded=1;whiteSpace=wrap;html=1;dashed=1;dashPattern=8 8;verticalAlign=top;fontStyle=1;fontSize=13;align=center;fillColor=none;" vertex="1" parent="mpWUx1rwgWqyipZbEIYX-1">
          <mxGeometry width="150" height="110" as="geometry" />
        </mxCell>
        <mxCell id="mpWUx1rwgWqyipZbEIYX-3" value="" style="group" vertex="1" connectable="0" parent="mpWUx1rwgWqyipZbEIYX-1">
          <mxGeometry x="22.5" y="28" width="105" height="70" as="geometry" />
        </mxCell>
        <mxCell id="mpWUx1rwgWqyipZbEIYX-4" value="&lt;div&gt;70% Train&lt;/div&gt;" style="rounded=1;whiteSpace=wrap;html=1;align=center;fillColor=none;" vertex="1" parent="mpWUx1rwgWqyipZbEIYX-3">
          <mxGeometry width="105" height="20" as="geometry" />
        </mxCell>
        <mxCell id="mpWUx1rwgWqyipZbEIYX-5" value="15% Validation" style="rounded=1;whiteSpace=wrap;html=1;align=center;fillColor=none;" vertex="1" parent="mpWUx1rwgWqyipZbEIYX-3">
          <mxGeometry y="25" width="105" height="20" as="geometry" />
        </mxCell>
        <mxCell id="mpWUx1rwgWqyipZbEIYX-6" value="15% Test" style="rounded=1;whiteSpace=wrap;html=1;align=center;fillColor=none;" vertex="1" parent="mpWUx1rwgWqyipZbEIYX-3">
          <mxGeometry y="50" width="105" height="20" as="geometry" />
        </mxCell>
        <mxCell id="mpWUx1rwgWqyipZbEIYX-7" style="edgeStyle=orthogonalEdgeStyle;rounded=0;orthogonalLoop=1;jettySize=auto;html=1;exitX=1;exitY=0.5;exitDx=0;exitDy=0;entryX=0;entryY=0.5;entryDx=0;entryDy=0;" edge="1" parent="1" source="mpWUx1rwgWqyipZbEIYX-2" target="mpWUx1rwgWqyipZbEIYX-9">
          <mxGeometry relative="1" as="geometry" />
        </mxCell>
        <mxCell id="mpWUx1rwgWqyipZbEIYX-8" value="" style="group" vertex="1" connectable="0" parent="1">
          <mxGeometry x="749" y="432.5" width="170" height="110" as="geometry" />
        </mxCell>
        <mxCell id="mpWUx1rwgWqyipZbEIYX-9" value="&lt;div style=&quot;&quot;&gt;&lt;span style=&quot;background-color: transparent; color: light-dark(rgb(0, 0, 0), rgb(255, 255, 255));&quot;&gt;Augmentation&lt;/span&gt;&lt;/div&gt;" style="rounded=1;whiteSpace=wrap;html=1;dashed=1;dashPattern=8 8;verticalAlign=top;fontStyle=1;fontSize=13;align=center;fillColor=none;" vertex="1" parent="mpWUx1rwgWqyipZbEIYX-8">
          <mxGeometry width="170" height="110" as="geometry" />
        </mxCell>
        <mxCell id="mpWUx1rwgWqyipZbEIYX-10" value="" style="group" vertex="1" connectable="0" parent="mpWUx1rwgWqyipZbEIYX-8">
          <mxGeometry x="22" y="28" width="126" height="70" as="geometry" />
        </mxCell>
        <mxCell id="mpWUx1rwgWqyipZbEIYX-11" value="&lt;div&gt;random noise&lt;/div&gt;" style="rounded=1;whiteSpace=wrap;html=1;align=center;fillColor=none;" vertex="1" parent="mpWUx1rwgWqyipZbEIYX-10">
          <mxGeometry width="126" height="20" as="geometry" />
        </mxCell>
        <mxCell id="mpWUx1rwgWqyipZbEIYX-12" value="random shift" style="rounded=1;whiteSpace=wrap;html=1;align=center;fillColor=none;" vertex="1" parent="mpWUx1rwgWqyipZbEIYX-10">
          <mxGeometry y="25" width="126" height="20" as="geometry" />
        </mxCell>
        <mxCell id="mpWUx1rwgWqyipZbEIYX-13" value="random horizontal flip" style="rounded=1;whiteSpace=wrap;html=1;align=center;fillColor=none;" vertex="1" parent="mpWUx1rwgWqyipZbEIYX-10">
          <mxGeometry y="50" width="126" height="20" as="geometry" />
        </mxCell>
        <mxCell id="mpWUx1rwgWqyipZbEIYX-37" style="edgeStyle=orthogonalEdgeStyle;rounded=0;orthogonalLoop=1;jettySize=auto;html=1;exitX=1;exitY=0.5;exitDx=0;exitDy=0;entryX=0;entryY=0.5;entryDx=0;entryDy=0;" edge="1" parent="1" source="mpWUx1rwgWqyipZbEIYX-9" target="mpWUx1rwgWqyipZbEIYX-160">
          <mxGeometry relative="1" as="geometry">
            <mxPoint x="849" y="487.5" as="targetPoint" />
          </mxGeometry>
        </mxCell>
        <mxCell id="mpWUx1rwgWqyipZbEIYX-38" style="edgeStyle=orthogonalEdgeStyle;rounded=0;orthogonalLoop=1;jettySize=auto;html=1;exitX=1;exitY=0.5;exitDx=0;exitDy=0;entryX=0;entryY=0.5;entryDx=0;entryDy=0;endArrow=none;startFill=0;" edge="1" parent="1" source="mpWUx1rwgWqyipZbEIYX-160" target="mpWUx1rwgWqyipZbEIYX-40">
          <mxGeometry relative="1" as="geometry">
            <mxPoint x="1059" y="487.5" as="sourcePoint" />
          </mxGeometry>
        </mxCell>
        <mxCell id="mpWUx1rwgWqyipZbEIYX-133" style="edgeStyle=orthogonalEdgeStyle;rounded=0;orthogonalLoop=1;jettySize=auto;html=1;exitX=1;exitY=0.5;exitDx=0;exitDy=0;entryX=0;entryY=0.5;entryDx=0;entryDy=0;" edge="1" parent="1" source="mpWUx1rwgWqyipZbEIYX-110" target="mpWUx1rwgWqyipZbEIYX-2">
          <mxGeometry relative="1" as="geometry" />
        </mxCell>
        <mxCell id="mpWUx1rwgWqyipZbEIYX-144" value="" style="group" vertex="1" connectable="0" parent="1">
          <mxGeometry x="1082" y="395" width="170" height="185" as="geometry" />
        </mxCell>
        <mxCell id="mpWUx1rwgWqyipZbEIYX-40" value="&lt;div style=&quot;&quot;&gt;&lt;span style=&quot;background-color: transparent; color: light-dark(rgb(0, 0, 0), rgb(255, 255, 255));&quot;&gt;Classification&lt;/span&gt;&lt;/div&gt;" style="rounded=1;whiteSpace=wrap;html=1;dashed=1;dashPattern=8 8;verticalAlign=top;fontStyle=1;fontSize=13;align=center;container=0;arcSize=13;fillColor=none;" vertex="1" parent="mpWUx1rwgWqyipZbEIYX-144">
          <mxGeometry width="170" height="185" as="geometry" />
        </mxCell>
        <mxCell id="mpWUx1rwgWqyipZbEIYX-143" value="" style="group" vertex="1" connectable="0" parent="mpWUx1rwgWqyipZbEIYX-144">
          <mxGeometry x="30" y="29" width="126" height="145" as="geometry" />
        </mxCell>
        <mxCell id="mpWUx1rwgWqyipZbEIYX-135" value="&lt;div&gt;bench press&lt;/div&gt;" style="rounded=1;whiteSpace=wrap;html=1;align=center;fillColor=none;" vertex="1" parent="mpWUx1rwgWqyipZbEIYX-143">
          <mxGeometry width="126" height="20" as="geometry" />
        </mxCell>
        <mxCell id="mpWUx1rwgWqyipZbEIYX-136" value="squat" style="rounded=1;whiteSpace=wrap;html=1;align=center;fillColor=none;" vertex="1" parent="mpWUx1rwgWqyipZbEIYX-143">
          <mxGeometry y="25" width="126" height="20" as="geometry" />
        </mxCell>
        <mxCell id="mpWUx1rwgWqyipZbEIYX-137" value="lat machine" style="rounded=1;whiteSpace=wrap;html=1;align=center;fillColor=none;" vertex="1" parent="mpWUx1rwgWqyipZbEIYX-143">
          <mxGeometry y="50" width="126" height="20" as="geometry" />
        </mxCell>
        <mxCell id="mpWUx1rwgWqyipZbEIYX-138" value="&lt;div&gt;pull up&lt;/div&gt;" style="rounded=1;whiteSpace=wrap;html=1;align=center;fillColor=none;" vertex="1" parent="mpWUx1rwgWqyipZbEIYX-143">
          <mxGeometry y="75" width="126" height="20" as="geometry" />
        </mxCell>
        <mxCell id="mpWUx1rwgWqyipZbEIYX-139" value="push up" style="rounded=1;whiteSpace=wrap;html=1;align=center;fillColor=none;" vertex="1" parent="mpWUx1rwgWqyipZbEIYX-143">
          <mxGeometry y="100" width="126" height="20" as="geometry" />
        </mxCell>
        <mxCell id="mpWUx1rwgWqyipZbEIYX-140" value="split squat" style="rounded=1;whiteSpace=wrap;html=1;align=center;fillColor=none;" vertex="1" parent="mpWUx1rwgWqyipZbEIYX-143">
          <mxGeometry y="125" width="126" height="20" as="geometry" />
        </mxCell>
        <mxCell id="mpWUx1rwgWqyipZbEIYX-146" value="" style="group" vertex="1" connectable="0" parent="1">
          <mxGeometry x="365" y="395" width="190" height="185" as="geometry" />
        </mxCell>
        <mxCell id="mpWUx1rwgWqyipZbEIYX-110" value="Combined Dataset" style="rounded=1;whiteSpace=wrap;html=1;dashed=1;dashPattern=8 8;verticalAlign=top;fontStyle=1;fontSize=13;arcSize=13;fillColor=none;" vertex="1" parent="mpWUx1rwgWqyipZbEIYX-146">
          <mxGeometry width="190" height="185" as="geometry" />
        </mxCell>
        <mxCell id="mpWUx1rwgWqyipZbEIYX-111" value="" style="shape=table;startSize=0;container=1;collapsible=0;childLayout=tableLayout;fontSize=12;fillColor=none;" vertex="1" parent="mpWUx1rwgWqyipZbEIYX-146">
          <mxGeometry x="25" y="34" width="140" height="140" as="geometry" />
        </mxCell>
        <mxCell id="mpWUx1rwgWqyipZbEIYX-112" value="" style="shape=tableRow;horizontal=0;startSize=0;swimlaneHead=0;swimlaneBody=0;strokeColor=inherit;top=0;left=0;bottom=0;right=0;collapsible=0;dropTarget=0;fillColor=none;points=[[0,0.5],[1,0.5]];portConstraint=eastwest;fontSize=16;" vertex="1" parent="mpWUx1rwgWqyipZbEIYX-111">
          <mxGeometry width="140" height="20" as="geometry" />
        </mxCell>
        <mxCell id="mpWUx1rwgWqyipZbEIYX-113" value="&lt;b&gt;Label&lt;/b&gt;" style="shape=partialRectangle;html=1;whiteSpace=wrap;connectable=0;strokeColor=inherit;overflow=hidden;fillColor=none;top=0;left=0;bottom=0;right=0;pointerEvents=1;fontSize=12;" vertex="1" parent="mpWUx1rwgWqyipZbEIYX-112">
          <mxGeometry width="45" height="20" as="geometry">
            <mxRectangle width="45" height="20" as="alternateBounds" />
          </mxGeometry>
        </mxCell>
        <mxCell id="mpWUx1rwgWqyipZbEIYX-114" value="Class" style="shape=partialRectangle;html=1;whiteSpace=wrap;connectable=0;strokeColor=inherit;overflow=hidden;fillColor=none;top=0;left=0;bottom=0;right=0;pointerEvents=1;fontSize=12;fontStyle=1" vertex="1" parent="mpWUx1rwgWqyipZbEIYX-112">
          <mxGeometry x="45" width="95" height="20" as="geometry">
            <mxRectangle width="95" height="20" as="alternateBounds" />
          </mxGeometry>
        </mxCell>
        <mxCell id="mpWUx1rwgWqyipZbEIYX-115" value="" style="shape=tableRow;horizontal=0;startSize=0;swimlaneHead=0;swimlaneBody=0;strokeColor=inherit;top=0;left=0;bottom=0;right=0;collapsible=0;dropTarget=0;fillColor=none;points=[[0,0.5],[1,0.5]];portConstraint=eastwest;fontSize=16;" vertex="1" parent="mpWUx1rwgWqyipZbEIYX-111">
          <mxGeometry y="20" width="140" height="20" as="geometry" />
        </mxCell>
        <mxCell id="mpWUx1rwgWqyipZbEIYX-116" value="0" style="shape=partialRectangle;html=1;whiteSpace=wrap;connectable=0;strokeColor=inherit;overflow=hidden;fillColor=none;top=0;left=0;bottom=0;right=0;pointerEvents=1;fontSize=12;" vertex="1" parent="mpWUx1rwgWqyipZbEIYX-115">
          <mxGeometry width="45" height="20" as="geometry">
            <mxRectangle width="45" height="20" as="alternateBounds" />
          </mxGeometry>
        </mxCell>
        <mxCell id="mpWUx1rwgWqyipZbEIYX-117" value="&lt;span style=&quot;text-align: left;&quot;&gt;bench_press&lt;/span&gt;" style="shape=partialRectangle;html=1;whiteSpace=wrap;connectable=0;strokeColor=inherit;overflow=hidden;fillColor=none;top=0;left=0;bottom=0;right=0;pointerEvents=1;fontSize=12;" vertex="1" parent="mpWUx1rwgWqyipZbEIYX-115">
          <mxGeometry x="45" width="95" height="20" as="geometry">
            <mxRectangle width="95" height="20" as="alternateBounds" />
          </mxGeometry>
        </mxCell>
        <mxCell id="mpWUx1rwgWqyipZbEIYX-118" value="" style="shape=tableRow;horizontal=0;startSize=0;swimlaneHead=0;swimlaneBody=0;strokeColor=inherit;top=0;left=0;bottom=0;right=0;collapsible=0;dropTarget=0;fillColor=none;points=[[0,0.5],[1,0.5]];portConstraint=eastwest;fontSize=16;" vertex="1" parent="mpWUx1rwgWqyipZbEIYX-111">
          <mxGeometry y="40" width="140" height="20" as="geometry" />
        </mxCell>
        <mxCell id="mpWUx1rwgWqyipZbEIYX-119" value="1" style="shape=partialRectangle;html=1;whiteSpace=wrap;connectable=0;strokeColor=inherit;overflow=hidden;fillColor=none;top=0;left=0;bottom=0;right=0;pointerEvents=1;fontSize=12;" vertex="1" parent="mpWUx1rwgWqyipZbEIYX-118">
          <mxGeometry width="45" height="20" as="geometry">
            <mxRectangle width="45" height="20" as="alternateBounds" />
          </mxGeometry>
        </mxCell>
        <mxCell id="mpWUx1rwgWqyipZbEIYX-120" value="squat" style="shape=partialRectangle;html=1;whiteSpace=wrap;connectable=0;strokeColor=inherit;overflow=hidden;fillColor=none;top=0;left=0;bottom=0;right=0;pointerEvents=1;fontSize=12;" vertex="1" parent="mpWUx1rwgWqyipZbEIYX-118">
          <mxGeometry x="45" width="95" height="20" as="geometry">
            <mxRectangle width="95" height="20" as="alternateBounds" />
          </mxGeometry>
        </mxCell>
        <mxCell id="mpWUx1rwgWqyipZbEIYX-121" style="shape=tableRow;horizontal=0;startSize=0;swimlaneHead=0;swimlaneBody=0;strokeColor=inherit;top=0;left=0;bottom=0;right=0;collapsible=0;dropTarget=0;fillColor=none;points=[[0,0.5],[1,0.5]];portConstraint=eastwest;fontSize=16;" vertex="1" parent="mpWUx1rwgWqyipZbEIYX-111">
          <mxGeometry y="60" width="140" height="20" as="geometry" />
        </mxCell>
        <mxCell id="mpWUx1rwgWqyipZbEIYX-122" value="2" style="shape=partialRectangle;html=1;whiteSpace=wrap;connectable=0;strokeColor=inherit;overflow=hidden;fillColor=none;top=0;left=0;bottom=0;right=0;pointerEvents=1;fontSize=12;" vertex="1" parent="mpWUx1rwgWqyipZbEIYX-121">
          <mxGeometry width="45" height="20" as="geometry">
            <mxRectangle width="45" height="20" as="alternateBounds" />
          </mxGeometry>
        </mxCell>
        <mxCell id="mpWUx1rwgWqyipZbEIYX-123" value="lat_machine" style="shape=partialRectangle;html=1;whiteSpace=wrap;connectable=0;strokeColor=inherit;overflow=hidden;fillColor=none;top=0;left=0;bottom=0;right=0;pointerEvents=1;fontSize=12;" vertex="1" parent="mpWUx1rwgWqyipZbEIYX-121">
          <mxGeometry x="45" width="95" height="20" as="geometry">
            <mxRectangle width="95" height="20" as="alternateBounds" />
          </mxGeometry>
        </mxCell>
        <mxCell id="mpWUx1rwgWqyipZbEIYX-124" style="shape=tableRow;horizontal=0;startSize=0;swimlaneHead=0;swimlaneBody=0;strokeColor=inherit;top=0;left=0;bottom=0;right=0;collapsible=0;dropTarget=0;fillColor=none;points=[[0,0.5],[1,0.5]];portConstraint=eastwest;fontSize=16;" vertex="1" parent="mpWUx1rwgWqyipZbEIYX-111">
          <mxGeometry y="80" width="140" height="20" as="geometry" />
        </mxCell>
        <mxCell id="mpWUx1rwgWqyipZbEIYX-125" value="3" style="shape=partialRectangle;html=1;whiteSpace=wrap;connectable=0;strokeColor=inherit;overflow=hidden;fillColor=none;top=0;left=0;bottom=0;right=0;pointerEvents=1;fontSize=12;" vertex="1" parent="mpWUx1rwgWqyipZbEIYX-124">
          <mxGeometry width="45" height="20" as="geometry">
            <mxRectangle width="45" height="20" as="alternateBounds" />
          </mxGeometry>
        </mxCell>
        <mxCell id="mpWUx1rwgWqyipZbEIYX-126" value="pull_up" style="shape=partialRectangle;html=1;whiteSpace=wrap;connectable=0;strokeColor=inherit;overflow=hidden;fillColor=none;top=0;left=0;bottom=0;right=0;pointerEvents=1;fontSize=12;" vertex="1" parent="mpWUx1rwgWqyipZbEIYX-124">
          <mxGeometry x="45" width="95" height="20" as="geometry">
            <mxRectangle width="95" height="20" as="alternateBounds" />
          </mxGeometry>
        </mxCell>
        <mxCell id="mpWUx1rwgWqyipZbEIYX-127" style="shape=tableRow;horizontal=0;startSize=0;swimlaneHead=0;swimlaneBody=0;strokeColor=inherit;top=0;left=0;bottom=0;right=0;collapsible=0;dropTarget=0;fillColor=none;points=[[0,0.5],[1,0.5]];portConstraint=eastwest;fontSize=16;" vertex="1" parent="mpWUx1rwgWqyipZbEIYX-111">
          <mxGeometry y="100" width="140" height="20" as="geometry" />
        </mxCell>
        <mxCell id="mpWUx1rwgWqyipZbEIYX-128" value="4" style="shape=partialRectangle;html=1;whiteSpace=wrap;connectable=0;strokeColor=inherit;overflow=hidden;fillColor=none;top=0;left=0;bottom=0;right=0;pointerEvents=1;fontSize=12;" vertex="1" parent="mpWUx1rwgWqyipZbEIYX-127">
          <mxGeometry width="45" height="20" as="geometry">
            <mxRectangle width="45" height="20" as="alternateBounds" />
          </mxGeometry>
        </mxCell>
        <mxCell id="mpWUx1rwgWqyipZbEIYX-129" value="push_up" style="shape=partialRectangle;html=1;whiteSpace=wrap;connectable=0;strokeColor=inherit;overflow=hidden;fillColor=none;top=0;left=0;bottom=0;right=0;pointerEvents=1;fontSize=12;" vertex="1" parent="mpWUx1rwgWqyipZbEIYX-127">
          <mxGeometry x="45" width="95" height="20" as="geometry">
            <mxRectangle width="95" height="20" as="alternateBounds" />
          </mxGeometry>
        </mxCell>
        <mxCell id="mpWUx1rwgWqyipZbEIYX-130" style="shape=tableRow;horizontal=0;startSize=0;swimlaneHead=0;swimlaneBody=0;strokeColor=inherit;top=0;left=0;bottom=0;right=0;collapsible=0;dropTarget=0;fillColor=none;points=[[0,0.5],[1,0.5]];portConstraint=eastwest;fontSize=16;" vertex="1" parent="mpWUx1rwgWqyipZbEIYX-111">
          <mxGeometry y="120" width="140" height="20" as="geometry" />
        </mxCell>
        <mxCell id="mpWUx1rwgWqyipZbEIYX-131" value="5" style="shape=partialRectangle;html=1;whiteSpace=wrap;connectable=0;strokeColor=inherit;overflow=hidden;fillColor=none;top=0;left=0;bottom=0;right=0;pointerEvents=1;fontSize=12;" vertex="1" parent="mpWUx1rwgWqyipZbEIYX-130">
          <mxGeometry width="45" height="20" as="geometry">
            <mxRectangle width="45" height="20" as="alternateBounds" />
          </mxGeometry>
        </mxCell>
        <mxCell id="mpWUx1rwgWqyipZbEIYX-132" value="split_squat" style="shape=partialRectangle;html=1;whiteSpace=wrap;connectable=0;strokeColor=inherit;overflow=hidden;fillColor=none;top=0;left=0;bottom=0;right=0;pointerEvents=1;fontSize=12;" vertex="1" parent="mpWUx1rwgWqyipZbEIYX-130">
          <mxGeometry x="45" width="95" height="20" as="geometry">
            <mxRectangle width="95" height="20" as="alternateBounds" />
          </mxGeometry>
        </mxCell>
        <mxCell id="mpWUx1rwgWqyipZbEIYX-160" value="&lt;span style=&quot;font-size: 13px; font-weight: 700;&quot;&gt;LSTM Model&lt;/span&gt;" style="rounded=1;whiteSpace=wrap;html=1;arcSize=23;fontColor=light-dark(#3F41CB,#EDEDED);strokeColor=light-dark(#3F41CB,#EDEDED);fillColor=default;" vertex="1" parent="1">
          <mxGeometry x="941" y="457.5" width="120" height="60" as="geometry" />
        </mxCell>
        <mxCell id="mpWUx1rwgWqyipZbEIYX-147" style="rounded=0;orthogonalLoop=1;jettySize=auto;html=1;exitX=1;exitY=0.5;exitDx=0;exitDy=0;entryX=0;entryY=0.5;entryDx=0;entryDy=0;edgeStyle=orthogonalEdgeStyle;" edge="1" parent="1" source="mpWUx1rwgWqyipZbEIYX-160" target="mpWUx1rwgWqyipZbEIYX-135">
          <mxGeometry relative="1" as="geometry">
            <Array as="points">
              <mxPoint x="1090" y="488" />
              <mxPoint x="1090" y="434" />
            </Array>
          </mxGeometry>
        </mxCell>
        <mxCell id="mpWUx1rwgWqyipZbEIYX-148" style="edgeStyle=orthogonalEdgeStyle;rounded=0;orthogonalLoop=1;jettySize=auto;html=1;exitX=1;exitY=0.5;exitDx=0;exitDy=0;entryX=0;entryY=0.5;entryDx=0;entryDy=0;" edge="1" parent="1" source="mpWUx1rwgWqyipZbEIYX-160" target="mpWUx1rwgWqyipZbEIYX-136">
          <mxGeometry relative="1" as="geometry">
            <Array as="points">
              <mxPoint x="1090" y="488" />
              <mxPoint x="1090" y="459" />
            </Array>
          </mxGeometry>
        </mxCell>
        <mxCell id="mpWUx1rwgWqyipZbEIYX-149" style="edgeStyle=orthogonalEdgeStyle;rounded=0;orthogonalLoop=1;jettySize=auto;html=1;exitX=1;exitY=0.5;exitDx=0;exitDy=0;entryX=0;entryY=0.5;entryDx=0;entryDy=0;" edge="1" parent="1" source="mpWUx1rwgWqyipZbEIYX-160" target="mpWUx1rwgWqyipZbEIYX-137">
          <mxGeometry relative="1" as="geometry">
            <Array as="points">
              <mxPoint x="1090" y="488" />
              <mxPoint x="1090" y="484" />
            </Array>
          </mxGeometry>
        </mxCell>
        <mxCell id="mpWUx1rwgWqyipZbEIYX-150" style="edgeStyle=orthogonalEdgeStyle;rounded=0;orthogonalLoop=1;jettySize=auto;html=1;exitX=1;exitY=0.5;exitDx=0;exitDy=0;entryX=0;entryY=0.5;entryDx=0;entryDy=0;" edge="1" parent="1" source="mpWUx1rwgWqyipZbEIYX-160" target="mpWUx1rwgWqyipZbEIYX-138">
          <mxGeometry relative="1" as="geometry">
            <Array as="points">
              <mxPoint x="1090" y="488" />
              <mxPoint x="1090" y="509" />
            </Array>
          </mxGeometry>
        </mxCell>
        <mxCell id="mpWUx1rwgWqyipZbEIYX-153" style="edgeStyle=orthogonalEdgeStyle;rounded=0;orthogonalLoop=1;jettySize=auto;html=1;exitX=1;exitY=0.5;exitDx=0;exitDy=0;entryX=0;entryY=0.5;entryDx=0;entryDy=0;" edge="1" parent="1" source="mpWUx1rwgWqyipZbEIYX-160" target="mpWUx1rwgWqyipZbEIYX-139">
          <mxGeometry relative="1" as="geometry">
            <Array as="points">
              <mxPoint x="1090" y="488" />
              <mxPoint x="1090" y="534" />
            </Array>
          </mxGeometry>
        </mxCell>
        <mxCell id="mpWUx1rwgWqyipZbEIYX-152" style="edgeStyle=orthogonalEdgeStyle;rounded=0;orthogonalLoop=1;jettySize=auto;html=1;exitX=1;exitY=0.5;exitDx=0;exitDy=0;entryX=0;entryY=0.5;entryDx=0;entryDy=0;" edge="1" parent="1" source="mpWUx1rwgWqyipZbEIYX-160" target="mpWUx1rwgWqyipZbEIYX-140">
          <mxGeometry relative="1" as="geometry">
            <Array as="points">
              <mxPoint x="1090" y="488" />
              <mxPoint x="1090" y="559" />
            </Array>
          </mxGeometry>
        </mxCell>
      </root>
    </mxGraphModel>
  </diagram>
  <diagram id="S9wgqXxECdbqjOqICjrz" name="PP Model">
    <mxGraphModel dx="1602" dy="516" grid="1" gridSize="10" guides="1" tooltips="1" connect="1" arrows="1" fold="1" page="1" pageScale="1" pageWidth="827" pageHeight="1169" math="0" shadow="0">
      <root>
        <mxCell id="0" />
        <mxCell id="1" parent="0" />
        <mxCell id="xq7YfXzbf6PNqC061K1Z-2" value="&lt;font style=&quot;color: light-dark(rgb(63, 65, 203), rgb(237, 237, 237));&quot;&gt;LSTM Model&lt;br&gt;&lt;/font&gt;&lt;span style=&quot;font-weight: normal;&quot;&gt;&lt;font style=&quot;font-size: 12px;&quot;&gt;Total params: 441,798 (1.69 MB)&lt;/font&gt;&lt;/span&gt;" style="rounded=1;whiteSpace=wrap;html=1;dashed=1;dashPattern=8 8;verticalAlign=top;fontStyle=1;fontSize=13;fillColor=none;strokeColor=light-dark(#3F41CB,#EDEDED);" vertex="1" parent="1">
          <mxGeometry x="10" y="398" width="570" height="180" as="geometry" />
        </mxCell>
        <mxCell id="xq7YfXzbf6PNqC061K1Z-4" value="Sequence&lt;div&gt;(30, 132)&lt;/div&gt;" style="rounded=1;whiteSpace=wrap;html=1;strokeColor=#000000;fontColor=#000000;" vertex="1" parent="1">
          <mxGeometry x="-100" y="468.75" width="75" height="55" as="geometry" />
        </mxCell>
        <mxCell id="xq7YfXzbf6PNqC061K1Z-5" value="Classification [0, ..., 5]" style="rounded=1;whiteSpace=wrap;html=1;strokeColor=#000000;fontColor=#000000;" vertex="1" parent="1">
          <mxGeometry x="600" y="468.75" width="75" height="55" as="geometry" />
        </mxCell>
        <mxCell id="xq7YfXzbf6PNqC061K1Z-32" value="(30, 256)" style="edgeStyle=orthogonalEdgeStyle;rounded=0;orthogonalLoop=1;jettySize=auto;html=1;exitX=1;exitY=0.5;exitDx=0;exitDy=0;entryX=0;entryY=0.5;entryDx=0;entryDy=0;verticalAlign=bottom;fontSize=6;labelPosition=right;verticalLabelPosition=middle;align=left;labelBackgroundColor=none;" edge="1" parent="1" source="xq7YfXzbf6PNqC061K1Z-7" target="xq7YfXzbf6PNqC061K1Z-12">
          <mxGeometry x="-1" y="6" relative="1" as="geometry">
            <mxPoint as="offset" />
          </mxGeometry>
        </mxCell>
        <mxCell id="xq7YfXzbf6PNqC061K1Z-7" value="&lt;b&gt;Bidirectional LSTM&lt;/b&gt;&lt;div&gt;(128 Units)&lt;/div&gt;" style="rounded=1;whiteSpace=wrap;html=1;" vertex="1" parent="1">
          <mxGeometry x="22" y="463.75" width="95" height="65" as="geometry" />
        </mxCell>
        <mxCell id="xq7YfXzbf6PNqC061K1Z-12" value="Batch&lt;div&gt;Normalization&lt;/div&gt;&lt;div&gt;&amp;amp;&lt;/div&gt;&lt;div&gt;Dropout (0.5)&lt;/div&gt;" style="rounded=1;whiteSpace=wrap;html=1;" vertex="1" parent="1">
          <mxGeometry x="147" y="463.75" width="85" height="65" as="geometry" />
        </mxCell>
        <mxCell id="xq7YfXzbf6PNqC061K1Z-25" value="(30, 132)" style="edgeStyle=orthogonalEdgeStyle;rounded=0;orthogonalLoop=1;jettySize=auto;html=1;exitX=1;exitY=0.5;exitDx=0;exitDy=0;entryX=0;entryY=0.5;entryDx=0;entryDy=0;fontColor=#000000;strokeColor=#000000;fontSize=6;verticalAlign=bottom;align=left;labelPosition=right;verticalLabelPosition=middle;labelBackgroundColor=none;" edge="1" parent="1" source="xq7YfXzbf6PNqC061K1Z-4" target="xq7YfXzbf6PNqC061K1Z-7">
          <mxGeometry x="-1" y="6" relative="1" as="geometry">
            <mxPoint x="-25" y="496" as="sourcePoint" />
            <mxPoint x="30" y="496.25" as="targetPoint" />
            <mxPoint as="offset" />
          </mxGeometry>
        </mxCell>
        <mxCell id="xq7YfXzbf6PNqC061K1Z-39" style="edgeStyle=orthogonalEdgeStyle;rounded=0;orthogonalLoop=1;jettySize=auto;html=1;exitX=1;exitY=0.5;exitDx=0;exitDy=0;entryX=0;entryY=0.5;entryDx=0;entryDy=0;align=right;labelPosition=left;verticalLabelPosition=middle;verticalAlign=middle;" edge="1" parent="1" source="xq7YfXzbf6PNqC061K1Z-27" target="xq7YfXzbf6PNqC061K1Z-38">
          <mxGeometry relative="1" as="geometry" />
        </mxCell>
        <mxCell id="xq7YfXzbf6PNqC061K1Z-40" value="(128,)" style="edgeLabel;html=1;align=left;verticalAlign=middle;resizable=0;points=[];fontSize=6;labelPosition=right;verticalLabelPosition=middle;labelBackgroundColor=none;" vertex="1" connectable="0" parent="xq7YfXzbf6PNqC061K1Z-39">
          <mxGeometry x="-0.0006" relative="1" as="geometry">
            <mxPoint x="-13" y="-11" as="offset" />
          </mxGeometry>
        </mxCell>
        <mxCell id="xq7YfXzbf6PNqC061K1Z-27" value="&lt;b&gt;Bidirectional LSTM&lt;/b&gt;&lt;div&gt;(64 Units)&lt;/div&gt;" style="rounded=1;whiteSpace=wrap;html=1;" vertex="1" parent="1">
          <mxGeometry x="262" y="463.75" width="95" height="65" as="geometry" />
        </mxCell>
        <mxCell id="xq7YfXzbf6PNqC061K1Z-46" style="edgeStyle=orthogonalEdgeStyle;rounded=0;orthogonalLoop=1;jettySize=auto;html=1;exitX=1;exitY=0.5;exitDx=0;exitDy=0;entryX=0;entryY=0.5;entryDx=0;entryDy=0;" edge="1" parent="1" source="xq7YfXzbf6PNqC061K1Z-30" target="xq7YfXzbf6PNqC061K1Z-5">
          <mxGeometry relative="1" as="geometry" />
        </mxCell>
        <mxCell id="xq7YfXzbf6PNqC061K1Z-47" value="(6,)" style="edgeLabel;html=1;align=left;verticalAlign=middle;resizable=0;points=[];labelPosition=right;verticalLabelPosition=middle;fontSize=6;labelBackgroundColor=none;" vertex="1" connectable="0" parent="xq7YfXzbf6PNqC061K1Z-46">
          <mxGeometry x="-0.3233" relative="1" as="geometry">
            <mxPoint x="-14" y="-11" as="offset" />
          </mxGeometry>
        </mxCell>
        <mxCell id="xq7YfXzbf6PNqC061K1Z-30" value="Dense&lt;div&gt;Layers&lt;/div&gt;" style="rounded=1;whiteSpace=wrap;html=1;" vertex="1" parent="1">
          <mxGeometry x="500" y="468.75" width="60" height="55" as="geometry" />
        </mxCell>
        <mxCell id="xq7YfXzbf6PNqC061K1Z-36" style="edgeStyle=orthogonalEdgeStyle;rounded=0;orthogonalLoop=1;jettySize=auto;html=1;exitX=1;exitY=0.5;exitDx=0;exitDy=0;entryX=0;entryY=0.5;entryDx=0;entryDy=0;align=right;labelPosition=left;verticalLabelPosition=middle;verticalAlign=middle;" edge="1" parent="1" source="xq7YfXzbf6PNqC061K1Z-12" target="xq7YfXzbf6PNqC061K1Z-27">
          <mxGeometry relative="1" as="geometry">
            <mxPoint x="330" y="496.25" as="sourcePoint" />
            <mxPoint x="280" y="490" as="targetPoint" />
          </mxGeometry>
        </mxCell>
        <mxCell id="xq7YfXzbf6PNqC061K1Z-37" value="(30, 256)" style="edgeLabel;html=1;align=left;verticalAlign=middle;resizable=0;points=[];fontSize=6;labelPosition=right;verticalLabelPosition=middle;labelBackgroundColor=none;" vertex="1" connectable="0" parent="xq7YfXzbf6PNqC061K1Z-36">
          <mxGeometry x="-0.1556" y="-1" relative="1" as="geometry">
            <mxPoint x="-12" y="-12" as="offset" />
          </mxGeometry>
        </mxCell>
        <mxCell id="xq7YfXzbf6PNqC061K1Z-41" style="edgeStyle=orthogonalEdgeStyle;rounded=0;orthogonalLoop=1;jettySize=auto;html=1;exitX=1;exitY=0.5;exitDx=0;exitDy=0;entryX=0;entryY=0.5;entryDx=0;entryDy=0;" edge="1" parent="1" source="xq7YfXzbf6PNqC061K1Z-38" target="xq7YfXzbf6PNqC061K1Z-30">
          <mxGeometry relative="1" as="geometry" />
        </mxCell>
        <mxCell id="xq7YfXzbf6PNqC061K1Z-42" value="(128,)" style="edgeLabel;html=1;align=left;verticalAlign=middle;resizable=0;points=[];fontSize=6;labelPosition=right;verticalLabelPosition=middle;labelBackgroundColor=none;" vertex="1" connectable="0" parent="xq7YfXzbf6PNqC061K1Z-41">
          <mxGeometry x="0.1337" relative="1" as="geometry">
            <mxPoint x="-16" y="-11" as="offset" />
          </mxGeometry>
        </mxCell>
        <mxCell id="xq7YfXzbf6PNqC061K1Z-38" value="Batch&lt;div&gt;Normalization&lt;/div&gt;&lt;div&gt;&amp;amp;&lt;/div&gt;&lt;div&gt;Dropout (0.5)&lt;/div&gt;" style="rounded=1;whiteSpace=wrap;html=1;" vertex="1" parent="1">
          <mxGeometry x="387" y="463.75" width="85" height="65" as="geometry" />
        </mxCell>
      </root>
    </mxGraphModel>
  </diagram>
</mxfile>
